<?xml version="1.0" encoding="utf-8"?>
<!-- Generator: Adobe Illustrator 27.9.0, SVG Export Plug-In . SVG Version: 6.00 Build 0)  -->
<svg version="1.1" id="Badge" xmlns="http://www.w3.org/2000/svg" xmlns:xlink="http://www.w3.org/1999/xlink" x="0px" y="0px"
	 viewBox="0 0 135 40" style="enable-background:new 0 0 135 40;" xml:space="preserve">
<style type="text/css">
	.st0{fill:#A6A6A6;}
	.st1{fill:#FFFFFF;}
	.st2{font-family:'ProductSans-Regular';}
	.st3{font-size:8.38px;}
	.st4{fill:none;stroke:#FFFFFF;stroke-width:0.2;stroke-miterlimit:10;}
	.st5{fill-rule:evenodd;clip-rule:evenodd;fill:#FFFFFF;}
	.st6{fill:#232F3E;}
	.st7{fill:#00CAFF;}
	.st8{fill-rule:evenodd;clip-rule:evenodd;fill:#00CAFF;}
</style>
<g>
	<path d="M130,40H5c-2.8,0-5-2.2-5-5V5c0-2.8,2.2-5,5-5h125c2.8,0,5,2.2,5,5v30C135,37.8,132.8,40,130,40z"/>
</g>
<g>
	<g>
		<path class="st0" d="M130,0.8c2.3,0,4.2,1.9,4.2,4.2v30c0,2.3-1.9,4.2-4.2,4.2H5c-2.3,0-4.2-1.9-4.2-4.2V5c0-2.3,1.9-4.2,4.2-4.2
			L130,0.8 M130,0H5C2.2,0,0,2.3,0,5v30c0,2.8,2.2,5,5,5h125c2.8,0,5-2.2,5-5V5C135,2.3,132.8,0,130,0L130,0z"/>
	</g>
</g>
<text transform="matrix(1 0 0 1 41.0413 13.0001)" class="st1 st2 st3">GET IT ON</text>
<text transform="matrix(1 0 0 1 41.0413 13.0001)" class="st4 st2 st3">GET IT ON</text>
<g>
	<g>
		<path class="st5" d="M62.3,21.4v-0.8c0-0.1,0.1-0.2,0.2-0.2l3.8,0c0.1,0,0.2,0.1,0.2,0.2v0.7c0,0.1-0.1,0.3-0.3,0.5l-1.9,2.8
			c0.7,0,1.5,0.1,2.1,0.5c0.1,0.1,0.2,0.2,0.2,0.3v0.9c0,0.1-0.1,0.3-0.3,0.2c-1.2-0.6-2.7-0.7-4,0c-0.1,0.1-0.3-0.1-0.3-0.2v-0.8
			c0-0.1,0-0.4,0.1-0.6l2.3-3.2l-2,0C62.4,21.6,62.3,21.6,62.3,21.4z"/>
		<path class="st5" d="M48.6,26.7h-1.1c-0.1,0-0.2-0.1-0.2-0.2l0-5.9c0-0.1,0.1-0.2,0.2-0.2l1.1,0c0.1,0,0.2,0.1,0.2,0.2v0.8h0
			c0.3-0.7,0.8-1.1,1.5-1.1c0.7,0,1.2,0.3,1.5,1.1c0.3-0.7,0.9-1.1,1.6-1.1c0.5,0,1,0.2,1.3,0.6c0.4,0.5,0.3,1.2,0.3,1.8l0,3.7
			c0,0.1-0.1,0.2-0.2,0.2h-1.1c-0.1,0-0.2-0.1-0.2-0.2l0-3.1c0-0.2,0-0.9,0-1.1c-0.1-0.4-0.3-0.5-0.7-0.5c-0.3,0-0.6,0.2-0.7,0.5
			c-0.1,0.3-0.1,0.8-0.1,1.1v3.1c0,0.1-0.1,0.2-0.2,0.2h-1.1c-0.1,0-0.2-0.1-0.2-0.2l0-3.1c0-0.7,0.1-1.6-0.7-1.6
			c-0.8,0-0.8,0.9-0.8,1.6l0,3.1C48.8,26.6,48.7,26.7,48.6,26.7z"/>
		<path class="st5" d="M69.7,20.3c1.7,0,2.6,1.5,2.6,3.3c0,1.8-1,3.2-2.6,3.2c-1.7,0-2.6-1.5-2.6-3.3C67.1,21.7,68,20.3,69.7,20.3z
			 M69.7,21.5c-0.8,0-0.9,1.1-0.9,1.9c0,0.7,0,2.2,0.9,2.2c0.9,0,0.9-1.2,0.9-2c0-0.5,0-1.1-0.2-1.6C70.3,21.6,70,21.5,69.7,21.5z"
			/>
		<path class="st5" d="M74.5,26.7h-1.1c-0.1,0-0.2-0.1-0.2-0.2l0-5.9c0-0.1,0.1-0.2,0.2-0.2l1.1,0c0.1,0,0.2,0.1,0.2,0.2v0.9h0
			c0.3-0.8,0.8-1.2,1.6-1.2c0.5,0,1,0.2,1.3,0.7c0.3,0.5,0.3,1.3,0.3,1.8v3.7c0,0.1-0.1,0.2-0.2,0.2h-1.1c-0.1,0-0.2-0.1-0.2-0.2
			v-3.2c0-0.6,0.1-1.6-0.7-1.6c-0.3,0-0.5,0.2-0.7,0.5c-0.2,0.4-0.2,0.7-0.2,1.1v3.2C74.7,26.6,74.6,26.7,74.5,26.7z"/>
		<path class="st5" d="M59.3,23.9c0,0.4,0,0.8-0.2,1.2c-0.2,0.3-0.5,0.5-0.8,0.5c-0.4,0-0.7-0.3-0.7-0.8c0-1,0.9-1.1,1.7-1.1V23.9z
			 M60.4,26.7c-0.1,0.1-0.2,0.1-0.3,0c-0.4-0.3-0.4-0.5-0.7-0.8c-0.6,0.6-1.1,0.8-1.9,0.8c-1,0-1.7-0.6-1.7-1.8
			c0-0.9,0.5-1.6,1.2-1.9c0.6-0.3,1.5-0.3,2.1-0.4v-0.1c0-0.3,0-0.6-0.1-0.8c-0.1-0.2-0.4-0.3-0.6-0.3c-0.4,0-0.8,0.2-0.9,0.7
			c0,0.1-0.1,0.2-0.2,0.2l-1.1-0.1c-0.1,0-0.2-0.1-0.2-0.2c0.3-1.3,1.5-1.7,2.6-1.7c0.6,0,1.3,0.1,1.7,0.6c0.6,0.5,0.5,1.2,0.5,2
			v1.8c0,0.5,0.2,0.8,0.4,1.1c0.1,0.1,0.1,0.2,0,0.3C61.1,26.1,60.6,26.5,60.4,26.7L60.4,26.7z"/>
		<path class="st5" d="M44.3,23.9c0,0.4,0,0.8-0.2,1.2c-0.2,0.3-0.5,0.5-0.8,0.5c-0.4,0-0.7-0.3-0.7-0.8c0-1,0.9-1.1,1.7-1.1V23.9z
			 M45.4,26.7c-0.1,0.1-0.2,0.1-0.3,0c-0.4-0.3-0.4-0.5-0.7-0.8c-0.6,0.6-1.1,0.8-1.9,0.8c-1,0-1.7-0.6-1.7-1.8
			c0-0.9,0.5-1.6,1.2-1.9c0.6-0.3,1.5-0.3,2.1-0.4v-0.1c0-0.3,0-0.6-0.1-0.8c-0.1-0.2-0.4-0.3-0.6-0.3c-0.4,0-0.8,0.2-0.9,0.7
			c0,0.1-0.1,0.2-0.2,0.2l-1.1-0.1c-0.1,0-0.2-0.1-0.2-0.2c0.3-1.3,1.5-1.7,2.6-1.7c0.6,0,1.3,0.1,1.7,0.6c0.6,0.5,0.5,1.2,0.5,2
			v1.8c0,0.5,0.2,0.8,0.4,1.1c0.1,0.1,0.1,0.2,0,0.3C46.1,26.1,45.7,26.5,45.4,26.7L45.4,26.7z"/>
	</g>
	<g>
		<path class="st1" d="M82.5,26.7c-0.6,0-1-0.2-1.4-0.5c-0.3-0.3-0.5-0.8-0.5-1.3c0-0.6,0.2-1.1,0.6-1.4c0.4-0.4,1-0.5,1.7-0.5
			c0.4,0,0.9,0.1,1.4,0.2v-0.7c0-0.4-0.1-0.7-0.3-0.8c-0.2-0.2-0.5-0.2-0.9-0.2c-0.3,0-0.6,0-0.9,0.1c-0.3,0.1-0.6,0.1-0.9,0.2
			c-0.1,0-0.1,0-0.2,0c-0.1,0-0.2-0.1-0.2-0.2v-0.4c0-0.1,0-0.2,0-0.2c0,0,0.1-0.1,0.3-0.2c0.6-0.2,1.3-0.4,2.1-0.4
			c0.8,0,1.4,0.2,1.7,0.5c0.4,0.3,0.6,0.8,0.6,1.5v4c0,0.2-0.1,0.3-0.3,0.3h-0.6c-0.2,0-0.3-0.1-0.3-0.2L84.4,26
			c-0.3,0.2-0.6,0.4-0.9,0.6C83.1,26.7,82.8,26.7,82.5,26.7z M82.9,25.7c0.2,0,0.5,0,0.7-0.1c0.3-0.1,0.5-0.2,0.7-0.4V24
			c-0.4-0.1-0.8-0.1-1.1-0.1c-0.8,0-1.2,0.3-1.2,1c0,0.3,0.1,0.5,0.2,0.6C82.4,25.7,82.6,25.7,82.9,25.7z"/>
		<path class="st1" d="M87.2,29c-0.2,0-0.3-0.1-0.3-0.3v-8c0-0.2,0.1-0.3,0.3-0.3h0.7c0.2,0,0.3,0.1,0.3,0.2l0.1,0.4
			c0.3-0.3,0.6-0.4,0.9-0.6c0.3-0.1,0.7-0.2,1.1-0.2c0.8,0,1.4,0.3,1.8,0.8c0.4,0.6,0.7,1.3,0.7,2.3c0,0.7-0.1,1.2-0.3,1.7
			c-0.2,0.5-0.5,0.9-0.9,1.1c-0.4,0.3-0.8,0.4-1.3,0.4c-0.3,0-0.7-0.1-1-0.2c-0.3-0.1-0.6-0.3-0.8-0.5v2.7c0,0.2-0.1,0.3-0.3,0.3
			H87.2z M89.7,25.6c0.5,0,0.9-0.2,1.1-0.5c0.2-0.3,0.4-0.9,0.4-1.6c0-0.7-0.1-1.2-0.4-1.6c-0.2-0.3-0.6-0.5-1.1-0.5
			c-0.5,0-1,0.2-1.4,0.5v3.2C88.8,25.4,89.2,25.6,89.7,25.6z"/>
		<path class="st1" d="M93.9,29c-0.2,0-0.3-0.1-0.3-0.3v-8c0-0.2,0.1-0.3,0.3-0.3h0.7c0.2,0,0.3,0.1,0.3,0.2l0.1,0.4
			c0.3-0.3,0.6-0.4,0.9-0.6c0.3-0.1,0.7-0.2,1.1-0.2c0.8,0,1.4,0.3,1.8,0.8c0.4,0.6,0.7,1.3,0.7,2.3c0,0.7-0.1,1.2-0.3,1.7
			c-0.2,0.5-0.5,0.9-0.9,1.1c-0.4,0.3-0.8,0.4-1.3,0.4c-0.3,0-0.7-0.1-1-0.2c-0.3-0.1-0.6-0.3-0.8-0.5v2.7c0,0.2-0.1,0.3-0.3,0.3
			H93.9z M96.5,25.6c0.5,0,0.9-0.2,1.1-0.5c0.2-0.3,0.4-0.9,0.4-1.6c0-0.7-0.1-1.2-0.4-1.6s-0.6-0.5-1.1-0.5c-0.5,0-1,0.2-1.4,0.5
			v3.2C95.5,25.4,96,25.6,96.5,25.6z"/>
		<path class="st1" d="M102.1,26.7c-0.6,0-1.2-0.1-1.7-0.3c-0.1,0-0.2-0.1-0.2-0.1c0-0.1-0.1-0.1-0.1-0.3v-0.4
			c0-0.2,0.1-0.2,0.2-0.2c0.1,0,0.2,0,0.3,0.1c0.6,0.2,1.1,0.2,1.5,0.2c0.4,0,0.7-0.1,0.9-0.2c0.2-0.1,0.3-0.3,0.3-0.6
			c0-0.2-0.1-0.3-0.2-0.4c-0.1-0.1-0.3-0.2-0.6-0.3l-1-0.4c-0.9-0.3-1.3-0.9-1.3-1.7c0-0.6,0.2-1,0.6-1.3c0.4-0.3,1-0.5,1.7-0.5
			c0.5,0,1,0.1,1.5,0.3c0.1,0,0.2,0.1,0.2,0.1c0,0.1,0.1,0.1,0.1,0.3v0.4c0,0.1,0,0.1,0,0.2c0,0-0.1,0.1-0.1,0.1c0,0-0.1,0-0.3-0.1
			c-0.5-0.1-0.9-0.2-1.2-0.2c-0.4,0-0.6,0.1-0.8,0.2c-0.2,0.1-0.3,0.3-0.3,0.5c0,0.2,0.1,0.3,0.2,0.4c0.1,0.1,0.3,0.2,0.7,0.4
			l0.9,0.4c0.5,0.2,0.8,0.4,1,0.7c0.2,0.3,0.3,0.6,0.3,1c0,0.6-0.2,1.1-0.6,1.4C103.4,26.6,102.8,26.7,102.1,26.7z"/>
		<path class="st1" d="M107.9,26.6c-0.6,0-1.1-0.1-1.4-0.4c-0.3-0.3-0.5-0.7-0.5-1.3v-3.3h-0.8c-0.2,0-0.3-0.1-0.3-0.3V21
			c0-0.1,0-0.2,0.1-0.2c0,0,0.1-0.1,0.2-0.1l0.8-0.1l0.2-1.4c0-0.1,0-0.2,0.1-0.2c0,0,0.1-0.1,0.2-0.1h0.6c0.2,0,0.3,0.1,0.3,0.3
			v1.4h1.5c0.2,0,0.3,0.1,0.3,0.3v0.5c0,0.2-0.1,0.3-0.3,0.3h-1.5v3.2c0,0.3,0.1,0.5,0.2,0.6c0.1,0.1,0.4,0.2,0.7,0.2
			c0.2,0,0.3,0,0.4,0c0.1,0,0.2,0,0.3,0c0.1,0,0.2,0.1,0.2,0.2v0.4c0,0.1,0,0.2-0.1,0.3c0,0.1-0.1,0.1-0.2,0.1
			C108.6,26.6,108.2,26.6,107.9,26.6z"/>
		<path class="st1" d="M112.5,26.7c-0.9,0-1.6-0.3-2.2-0.9c-0.5-0.6-0.8-1.4-0.8-2.4c0-1,0.3-1.8,0.8-2.4c0.5-0.6,1.2-0.8,2.2-0.8
			c0.9,0,1.6,0.3,2.2,0.8c0.5,0.6,0.8,1.4,0.8,2.4c0,1-0.3,1.8-0.8,2.4C114.1,26.5,113.4,26.7,112.5,26.7z M112.5,25.6
			c1,0,1.5-0.7,1.5-2.1c0-1.4-0.5-2.1-1.5-2.1c-1,0-1.5,0.7-1.5,2.1C111,24.9,111.5,25.6,112.5,25.6z"/>
		<path class="st1" d="M116.7,26.6c-0.2,0-0.3-0.1-0.3-0.3v-5.5c0-0.2,0.1-0.3,0.3-0.3h0.6c0.1,0,0.2,0,0.2,0c0,0,0.1,0.1,0.1,0.2
			l0.1,0.7c0.3-0.3,0.6-0.6,0.9-0.7c0.3-0.1,0.6-0.2,0.9-0.2h0c0.1,0,0.2,0,0.3,0c0.1,0,0.1,0.1,0.1,0.1c0,0,0,0.1,0,0.3v0.6
			c0,0.2-0.1,0.3-0.2,0.3c0,0-0.1,0-0.2,0c-0.1,0-0.2,0-0.3,0c-0.6,0-1.1,0.2-1.6,0.5v4.1c0,0.2-0.1,0.3-0.3,0.3H116.7z"/>
		<path class="st1" d="M123.5,26.7c-1,0-1.8-0.3-2.3-0.8c-0.5-0.5-0.8-1.3-0.8-2.4c0-1,0.3-1.8,0.8-2.4c0.5-0.6,1.2-0.9,2.1-0.9
			c0.8,0,1.4,0.2,1.8,0.6c0.4,0.4,0.6,1,0.6,1.8c0,0.3,0,0.6-0.1,0.8c0,0.1,0,0.2-0.1,0.2c0,0-0.1,0.1-0.2,0.1h-3.7
			c0,0.6,0.2,1,0.5,1.3c0.3,0.3,0.8,0.4,1.4,0.4c0.5,0,1-0.1,1.5-0.2c0.1,0,0.1,0,0.1,0c0,0,0.1,0,0.1,0c0.1,0,0.2,0.1,0.2,0.2V26
			c0,0.1,0,0.2-0.1,0.3c0,0.1-0.1,0.1-0.2,0.1C124.7,26.6,124.1,26.7,123.5,26.7z M124.5,22.9L124.5,22.9c0-0.6-0.1-0.9-0.3-1.2
			c-0.2-0.3-0.5-0.4-0.9-0.4c-0.4,0-0.8,0.1-1,0.4c-0.3,0.3-0.4,0.7-0.5,1.2H124.5z"/>
	</g>
</g>
<g>
	<path class="st5" d="M63.8,28.9c-2.1,1.6-5.3,2.4-7.9,2.4c-3.8,0-7.1-1.4-9.7-3.7c-0.2-0.2,0-0.4,0.2-0.3c2.8,1.6,6.2,2.6,9.7,2.6
		c2.4,0,5-0.5,7.4-1.5C63.9,28.3,64.2,28.7,63.8,28.9z"/>
	<path class="st5" d="M64.7,27.9c-0.3-0.4-1.8-0.2-2.5-0.1c-0.2,0-0.2-0.2-0.1-0.3c1.2-0.9,3.2-0.6,3.5-0.3c0.2,0.3-0.1,2.3-1.2,3.3
		c-0.2,0.1-0.3,0.1-0.3-0.1C64.4,29.7,65,28.3,64.7,27.9z"/>
</g>
<g>
	<path class="st6" d="M14.4,32.8h17.1c2.4,0,4.3-1.9,4.3-4.3V11.5c0-2.4-1.9-4.3-4.3-4.3H14.4c-2.4,0-4.3,1.9-4.3,4.3v17.1
		C10.1,30.9,12,32.8,14.4,32.8z"/>
	<g>
		<path class="st7" d="M14.3,24.2c-0.2,0-0.4-0.1-0.6-0.2c-0.1-0.1-0.2-0.3-0.2-0.5c0-0.2,0.1-0.4,0.3-0.6c0.2-0.1,0.4-0.2,0.7-0.2
			c0.2,0,0.4,0,0.6,0.1v-0.3c0-0.2,0-0.3-0.1-0.4c-0.1-0.1-0.2-0.1-0.4-0.1c-0.1,0-0.2,0-0.4,0c-0.1,0-0.3,0.1-0.4,0.1
			c0,0-0.1,0-0.1,0c0,0-0.1,0-0.1-0.1v-0.2c0,0,0-0.1,0-0.1c0,0,0,0,0.1-0.1c0.3-0.1,0.5-0.1,0.9-0.1c0.3,0,0.6,0.1,0.7,0.2
			c0.2,0.1,0.2,0.3,0.2,0.6V24c0,0.1,0,0.1-0.1,0.1h-0.3c-0.1,0-0.1,0-0.1-0.1l0-0.1c-0.1,0.1-0.2,0.2-0.4,0.2
			C14.5,24.1,14.4,24.2,14.3,24.2z M14.4,23.7c0.1,0,0.2,0,0.3-0.1c0.1,0,0.2-0.1,0.3-0.2V23c-0.2,0-0.3-0.1-0.5-0.1
			c-0.3,0-0.5,0.1-0.5,0.4c0,0.1,0,0.2,0.1,0.3C14.2,23.7,14.3,23.7,14.4,23.7z"/>
		<path class="st7" d="M16.2,25.1c-0.1,0-0.1,0-0.1-0.1v-3.3c0-0.1,0-0.1,0.1-0.1h0.3c0.1,0,0.1,0,0.1,0.1l0,0.2
			c0.1-0.1,0.2-0.2,0.4-0.2c0.1-0.1,0.3-0.1,0.4-0.1c0.3,0,0.6,0.1,0.8,0.4c0.2,0.2,0.3,0.6,0.3,1c0,0.3,0,0.5-0.1,0.7
			c-0.1,0.2-0.2,0.4-0.4,0.5c-0.2,0.1-0.3,0.2-0.6,0.2c-0.1,0-0.3,0-0.4-0.1c-0.1,0-0.2-0.1-0.3-0.2V25c0,0.1,0,0.1-0.1,0.1H16.2z
			 M17.3,23.7c0.2,0,0.4-0.1,0.5-0.2c0.1-0.1,0.2-0.4,0.2-0.7c0-0.3-0.1-0.5-0.2-0.6c-0.1-0.1-0.3-0.2-0.5-0.2
			c-0.2,0-0.4,0.1-0.6,0.2v1.4C16.9,23.6,17.1,23.7,17.3,23.7z"/>
		<path class="st7" d="M19.1,25.1c-0.1,0-0.1,0-0.1-0.1v-3.3c0-0.1,0-0.1,0.1-0.1h0.3c0.1,0,0.1,0,0.1,0.1l0,0.2
			c0.1-0.1,0.2-0.2,0.4-0.2c0.1-0.1,0.3-0.1,0.4-0.1c0.3,0,0.6,0.1,0.8,0.4c0.2,0.2,0.3,0.6,0.3,1c0,0.3,0,0.5-0.1,0.7
			c-0.1,0.2-0.2,0.4-0.4,0.5c-0.2,0.1-0.3,0.2-0.6,0.2c-0.1,0-0.3,0-0.4-0.1c-0.1,0-0.2-0.1-0.3-0.2V25c0,0.1,0,0.1-0.1,0.1H19.1z
			 M20.1,23.7c0.2,0,0.4-0.1,0.5-0.2c0.1-0.1,0.2-0.4,0.2-0.7c0-0.3-0.1-0.5-0.2-0.6c-0.1-0.1-0.3-0.2-0.5-0.2
			c-0.2,0-0.4,0.1-0.6,0.2v1.4C19.7,23.6,19.9,23.7,20.1,23.7z"/>
		<path class="st7" d="M22.5,24.2c-0.3,0-0.5,0-0.7-0.1c-0.1,0-0.1,0-0.1-0.1c0,0,0-0.1,0-0.1v-0.2c0-0.1,0-0.1,0.1-0.1
			c0,0,0.1,0,0.1,0c0.2,0.1,0.4,0.1,0.6,0.1c0.2,0,0.3,0,0.4-0.1c0.1-0.1,0.1-0.1,0.1-0.2c0-0.1,0-0.1-0.1-0.2c0,0-0.1-0.1-0.3-0.1
			l-0.4-0.2c-0.4-0.1-0.6-0.4-0.6-0.7c0-0.2,0.1-0.4,0.3-0.6c0.2-0.1,0.4-0.2,0.7-0.2c0.2,0,0.4,0,0.6,0.1c0,0,0.1,0,0.1,0.1
			c0,0,0,0.1,0,0.1v0.2c0,0,0,0.1,0,0.1c0,0,0,0-0.1,0c0,0-0.1,0-0.1,0c-0.2,0-0.4-0.1-0.5-0.1c-0.2,0-0.3,0-0.3,0.1
			c-0.1,0-0.1,0.1-0.1,0.2c0,0.1,0,0.1,0.1,0.2c0.1,0,0.1,0.1,0.3,0.1l0.4,0.1c0.2,0.1,0.3,0.2,0.4,0.3c0.1,0.1,0.1,0.2,0.1,0.4
			c0,0.2-0.1,0.4-0.3,0.6C23,24.1,22.8,24.2,22.5,24.2z"/>
		<path class="st7" d="M24.9,24.1c-0.3,0-0.5-0.1-0.6-0.2c-0.1-0.1-0.2-0.3-0.2-0.6V22h-0.3c-0.1,0-0.1,0-0.1-0.1v-0.1
			c0,0,0-0.1,0-0.1c0,0,0,0,0.1,0l0.3,0l0.1-0.6c0,0,0-0.1,0-0.1c0,0,0,0,0.1,0h0.3c0.1,0,0.1,0,0.1,0.1v0.6h0.6
			c0.1,0,0.1,0,0.1,0.1v0.2c0,0.1,0,0.1-0.1,0.1h-0.6v1.3c0,0.1,0,0.2,0.1,0.2c0.1,0,0.1,0.1,0.3,0.1c0.1,0,0.1,0,0.2,0
			c0,0,0.1,0,0.1,0c0.1,0,0.1,0,0.1,0.1v0.2c0,0.1,0,0.1,0,0.1c0,0-0.1,0-0.1,0.1C25.2,24.1,25,24.1,24.9,24.1z"/>
		<path class="st7" d="M26.8,24.2c-0.4,0-0.7-0.1-0.9-0.4c-0.2-0.2-0.3-0.6-0.3-1c0-0.4,0.1-0.7,0.3-1c0.2-0.2,0.5-0.4,0.9-0.4
			c0.4,0,0.7,0.1,0.9,0.4c0.2,0.2,0.3,0.6,0.3,1c0,0.4-0.1,0.8-0.3,1C27.5,24,27.2,24.2,26.8,24.2z M26.8,23.7
			c0.4,0,0.6-0.3,0.6-0.9c0-0.6-0.2-0.9-0.6-0.9c-0.4,0-0.6,0.3-0.6,0.9C26.2,23.4,26.4,23.7,26.8,23.7z"/>
		<path class="st7" d="M28.6,24.1c-0.1,0-0.1,0-0.1-0.1v-2.3c0-0.1,0-0.1,0.1-0.1h0.3c0,0,0.1,0,0.1,0c0,0,0,0,0,0.1l0.1,0.3
			c0.1-0.1,0.3-0.2,0.4-0.3c0.1-0.1,0.2-0.1,0.4-0.1h0c0,0,0.1,0,0.1,0c0,0,0,0,0.1,0c0,0,0,0.1,0,0.1V22c0,0.1,0,0.1-0.1,0.1
			c0,0,0,0-0.1,0c0,0-0.1,0-0.1,0c-0.2,0-0.5,0.1-0.7,0.2V24c0,0.1,0,0.1-0.1,0.1H28.6z"/>
		<path class="st7" d="M31.4,24.2c-0.4,0-0.7-0.1-1-0.3c-0.2-0.2-0.3-0.6-0.3-1c0-0.4,0.1-0.8,0.3-1c0.2-0.2,0.5-0.4,0.9-0.4
			c0.3,0,0.6,0.1,0.7,0.3c0.2,0.2,0.3,0.4,0.3,0.8c0,0.1,0,0.2,0,0.4c0,0,0,0.1,0,0.1c0,0,0,0-0.1,0h-1.5c0,0.3,0.1,0.4,0.2,0.6
			c0.1,0.1,0.3,0.2,0.6,0.2c0.2,0,0.4,0,0.6-0.1c0,0,0,0,0.1,0c0,0,0,0,0,0c0,0,0.1,0,0.1,0.1v0.2c0,0,0,0.1,0,0.1c0,0,0,0-0.1,0.1
			C31.9,24.1,31.7,24.2,31.4,24.2z M31.8,22.6L31.8,22.6c0-0.2,0-0.4-0.1-0.5c-0.1-0.1-0.2-0.2-0.4-0.2c-0.2,0-0.3,0.1-0.4,0.2
			c-0.1,0.1-0.2,0.3-0.2,0.5H31.8z"/>
	</g>
	<g>
		<path class="st8" d="M24.8,18.5c-0.9,0.7-2.2,1-3.3,1c-1.6,0-3-0.6-4-1.5c-0.1-0.1,0-0.2,0.1-0.1c1.2,0.7,2.6,1.1,4,1.1
			c1,0,2.1-0.2,3.1-0.6C24.8,18.2,24.9,18.4,24.8,18.5z"/>
		<path class="st8" d="M25.1,18.1c-0.1-0.1-0.8-0.1-1,0c-0.1,0-0.1-0.1,0-0.1c0.5-0.4,1.4-0.3,1.4-0.1c0.1,0.1,0,1-0.5,1.4
			c-0.1,0.1-0.1,0-0.1-0.1C25,18.8,25.2,18.2,25.1,18.1z"/>
		<path class="st8" d="M24.1,15.4V15c0-0.1,0-0.1,0.1-0.1l1.6,0c0.1,0,0.1,0,0.1,0.1v0.3c0,0.1,0,0.1-0.1,0.2l-0.8,1.2
			c0.3,0,0.6,0,0.9,0.2c0.1,0,0.1,0.1,0.1,0.1v0.4c0,0.1-0.1,0.1-0.1,0.1c-0.5-0.3-1.1-0.3-1.7,0c-0.1,0-0.1,0-0.1-0.1v-0.4
			c0-0.1,0-0.2,0.1-0.2l0.9-1.3L24.1,15.4C24.1,15.5,24.1,15.5,24.1,15.4z"/>
		<path class="st8" d="M18.4,17.6h-0.5c0,0-0.1,0-0.1-0.1l0-2.4c0,0,0-0.1,0.1-0.1l0.4,0c0,0,0.1,0,0.1,0.1v0.3h0
			c0.1-0.3,0.3-0.5,0.6-0.5c0.3,0,0.5,0.1,0.6,0.5c0.1-0.3,0.4-0.5,0.7-0.5c0.2,0,0.4,0.1,0.6,0.3c0.2,0.2,0.1,0.5,0.1,0.8l0,1.5
			c0,0,0,0.1-0.1,0.1h-0.5c0,0-0.1,0-0.1-0.1l0-1.3c0-0.1,0-0.4,0-0.5c0-0.2-0.1-0.2-0.3-0.2c-0.1,0-0.2,0.1-0.3,0.2
			c0,0.1,0,0.3,0,0.5v1.3c0,0,0,0.1-0.1,0.1h-0.5c0,0-0.1,0-0.1-0.1l0-1.3c0-0.3,0-0.7-0.3-0.7c-0.3,0-0.3,0.4-0.3,0.7L18.4,17.6
			C18.5,17.5,18.4,17.6,18.4,17.6z"/>
		<path class="st8" d="M27.2,14.9c0.7,0,1.1,0.6,1.1,1.4c0,0.7-0.4,1.3-1.1,1.3c-0.7,0-1.1-0.6-1.1-1.4
			C26.1,15.5,26.5,14.9,27.2,14.9z M27.2,15.4c-0.4,0-0.4,0.5-0.4,0.8c0,0.3,0,0.9,0.4,0.9c0.4,0,0.4-0.5,0.4-0.8
			c0-0.2,0-0.5-0.1-0.6C27.5,15.5,27.3,15.4,27.2,15.4z"/>
		<path class="st8" d="M29.2,17.6h-0.5c0,0-0.1,0-0.1-0.1l0-2.4c0,0,0-0.1,0.1-0.1l0.4,0c0,0,0.1,0,0.1,0.1v0.4h0
			c0.1-0.3,0.3-0.5,0.6-0.5c0.2,0,0.4,0.1,0.6,0.3c0.1,0.2,0.1,0.5,0.1,0.8v1.5c0,0,0,0.1-0.1,0.1H30c0,0-0.1,0-0.1-0.1v-1.3
			c0-0.3,0-0.7-0.3-0.7c-0.1,0-0.2,0.1-0.3,0.2c-0.1,0.1-0.1,0.3-0.1,0.5L29.2,17.6C29.3,17.5,29.3,17.6,29.2,17.6z"/>
		<path class="st8" d="M22.9,16.4c0,0.2,0,0.3-0.1,0.5c-0.1,0.1-0.2,0.2-0.3,0.2c-0.2,0-0.3-0.1-0.3-0.3c0-0.4,0.4-0.5,0.7-0.5V16.4
			z M23.3,17.6c0,0-0.1,0-0.1,0c-0.2-0.1-0.2-0.2-0.3-0.3c-0.3,0.3-0.4,0.3-0.8,0.3c-0.4,0-0.7-0.2-0.7-0.7c0-0.4,0.2-0.7,0.5-0.8
			c0.3-0.1,0.6-0.1,0.9-0.2v-0.1c0-0.1,0-0.2-0.1-0.3c-0.1-0.1-0.2-0.1-0.3-0.1c-0.2,0-0.3,0.1-0.4,0.3c0,0,0,0.1-0.1,0.1l-0.5-0.1
			c0,0-0.1,0-0.1-0.1c0.1-0.6,0.6-0.7,1.1-0.7c0.2,0,0.5,0.1,0.7,0.2c0.2,0.2,0.2,0.5,0.2,0.8v0.7c0,0.2,0.1,0.3,0.2,0.4
			c0,0,0,0.1,0,0.1C23.6,17.3,23.4,17.5,23.3,17.6L23.3,17.6z"/>
		<path class="st8" d="M16.6,16.4c0,0.2,0,0.3-0.1,0.5c-0.1,0.1-0.2,0.2-0.3,0.2c-0.2,0-0.3-0.1-0.3-0.3c0-0.4,0.4-0.5,0.7-0.5V16.4
			z M17.1,17.6c0,0-0.1,0-0.1,0c-0.2-0.1-0.2-0.2-0.3-0.3c-0.3,0.3-0.4,0.3-0.8,0.3c-0.4,0-0.7-0.2-0.7-0.7c0-0.4,0.2-0.7,0.5-0.8
			c0.3-0.1,0.6-0.1,0.9-0.2v-0.1c0-0.1,0-0.2-0.1-0.3c-0.1-0.1-0.2-0.1-0.3-0.1c-0.2,0-0.3,0.1-0.4,0.3c0,0,0,0.1-0.1,0.1l-0.5-0.1
			c0,0-0.1,0-0.1-0.1c0.1-0.6,0.6-0.7,1.1-0.7c0.2,0,0.5,0.1,0.7,0.2c0.2,0.2,0.2,0.5,0.2,0.8v0.7c0,0.2,0.1,0.3,0.2,0.4
			c0,0,0,0.1,0,0.1C17.4,17.3,17.2,17.5,17.1,17.6L17.1,17.6z"/>
	</g>
</g>
</svg>
