<?xml version="1.0" encoding="UTF-8" standalone="no"?>
<!-- Generator: Adobe Illustrator 27.9.0, SVG Export Plug-In . SVG Version: 6.00 Build 0)  -->

<svg
   version="1.1"
   id="Badge"
   x="0px"
   y="0px"
   viewBox="0 0 135 40"
   style="enable-background:new 0 0 135 40;"
   xml:space="preserve"
   sodipodi:docname="Amazon.svg"
   inkscape:version="1.3 (0e150ed6c4, 2023-07-21)"
   xmlns:inkscape="http://www.inkscape.org/namespaces/inkscape"
   xmlns:sodipodi="http://sodipodi.sourceforge.net/DTD/sodipodi-0.dtd"
   xmlns="http://www.w3.org/2000/svg"
   xmlns:svg="http://www.w3.org/2000/svg"><defs
   id="defs37" /><sodipodi:namedview
   id="namedview37"
   pagecolor="#ffffff"
   bordercolor="#000000"
   borderopacity="0.25"
   inkscape:showpageshadow="2"
   inkscape:pageopacity="0.0"
   inkscape:pagecheckerboard="0"
   inkscape:deskcolor="#d1d1d1"
   inkscape:zoom="7.9851852"
   inkscape:cx="67.5"
   inkscape:cy="19.97449"
   inkscape:window-width="1920"
   inkscape:window-height="974"
   inkscape:window-x="-11"
   inkscape:window-y="-11"
   inkscape:window-maximized="1"
   inkscape:current-layer="Badge" />&#10;<style
   type="text/css"
   id="style1">&#10;	.st0{fill:#A6A6A6;}&#10;	.st1{fill:#FFFFFF;}&#10;	.st2{font-family:'ProductSans-Regular';}&#10;	.st3{font-size:8.38px;}&#10;	.st4{fill:none;stroke:#FFFFFF;stroke-width:0.2;stroke-miterlimit:10;}&#10;	.st5{fill-rule:evenodd;clip-rule:evenodd;fill:#FFFFFF;}&#10;	.st6{fill:#232F3E;}&#10;	.st7{fill:#00CAFF;}&#10;	.st8{fill-rule:evenodd;clip-rule:evenodd;fill:#00CAFF;}&#10;</style>&#10;<g
   id="g1">&#10;	<path
   d="M130,40H5c-2.8,0-5-2.2-5-5V5c0-2.8,2.2-5,5-5h125c2.8,0,5,2.2,5,5v30C135,37.8,132.8,40,130,40z"
   id="path1" />&#10;</g>&#10;<g
   id="g3">&#10;	<g
   id="g2">&#10;		<path
   class="st0"
   d="M130,0.8c2.3,0,4.2,1.9,4.2,4.2v30c0,2.3-1.9,4.2-4.2,4.2H5c-2.3,0-4.2-1.9-4.2-4.2V5c0-2.3,1.9-4.2,4.2-4.2    L130,0.8 M130,0H5C2.2,0,0,2.3,0,5v30c0,2.8,2.2,5,5,5h125c2.8,0,5-2.2,5-5V5C135,2.3,132.8,0,130,0L130,0z"
   id="path2" />&#10;	</g>&#10;</g>&#10;<text
   transform="matrix(1 0 0 1 41.0413 13.0001)"
   class="st1 st2 st3"
   id="text3">GET IT ON</text>&#10;<text
   transform="matrix(1 0 0 1 41.0413 13.0001)"
   class="st4 st2 st3"
   id="text4">GET IT ON</text>&#10;<g
   id="g18">&#10;	<g
   id="g9">&#10;		<path
   class="st5"
   d="M62.3,21.4v-0.8c0-0.1,0.1-0.2,0.2-0.2l3.8,0c0.1,0,0.2,0.1,0.2,0.2v0.7c0,0.1-0.1,0.3-0.3,0.5l-1.9,2.8    c0.7,0,1.5,0.1,2.1,0.5c0.1,0.1,0.2,0.2,0.2,0.3v0.9c0,0.1-0.1,0.3-0.3,0.2c-1.2-0.6-2.7-0.7-4,0c-0.1,0.1-0.3-0.1-0.3-0.2v-0.8    c0-0.1,0-0.4,0.1-0.6l2.3-3.2l-2,0C62.4,21.6,62.3,21.6,62.3,21.4z"
   id="path4" />&#10;		<path
   class="st5"
   d="M48.6,26.7h-1.1c-0.1,0-0.2-0.1-0.2-0.2l0-5.9c0-0.1,0.1-0.2,0.2-0.2l1.1,0c0.1,0,0.2,0.1,0.2,0.2v0.8h0    c0.3-0.7,0.8-1.1,1.5-1.1c0.7,0,1.2,0.3,1.5,1.1c0.3-0.7,0.9-1.1,1.6-1.1c0.5,0,1,0.2,1.3,0.6c0.4,0.5,0.3,1.2,0.3,1.8l0,3.7    c0,0.1-0.1,0.2-0.2,0.2h-1.1c-0.1,0-0.2-0.1-0.2-0.2l0-3.1c0-0.2,0-0.9,0-1.1c-0.1-0.4-0.3-0.5-0.7-0.5c-0.3,0-0.6,0.2-0.7,0.5    c-0.1,0.3-0.1,0.8-0.1,1.1v3.1c0,0.1-0.1,0.2-0.2,0.2h-1.1c-0.1,0-0.2-0.1-0.2-0.2l0-3.1c0-0.7,0.1-1.6-0.7-1.6    c-0.8,0-0.8,0.9-0.8,1.6l0,3.1C48.8,26.6,48.7,26.7,48.6,26.7z"
   id="path5" />&#10;		<path
   class="st5"
   d="M69.7,20.3c1.7,0,2.6,1.5,2.6,3.3c0,1.8-1,3.2-2.6,3.2c-1.7,0-2.6-1.5-2.6-3.3C67.1,21.7,68,20.3,69.7,20.3z     M69.7,21.5c-0.8,0-0.9,1.1-0.9,1.9c0,0.7,0,2.2,0.9,2.2c0.9,0,0.9-1.2,0.9-2c0-0.5,0-1.1-0.2-1.6C70.3,21.6,70,21.5,69.7,21.5z"
   id="path6" />&#10;		<path
   class="st5"
   d="M74.5,26.7h-1.1c-0.1,0-0.2-0.1-0.2-0.2l0-5.9c0-0.1,0.1-0.2,0.2-0.2l1.1,0c0.1,0,0.2,0.1,0.2,0.2v0.9h0    c0.3-0.8,0.8-1.2,1.6-1.2c0.5,0,1,0.2,1.3,0.7c0.3,0.5,0.3,1.3,0.3,1.8v3.7c0,0.1-0.1,0.2-0.2,0.2h-1.1c-0.1,0-0.2-0.1-0.2-0.2    v-3.2c0-0.6,0.1-1.6-0.7-1.6c-0.3,0-0.5,0.2-0.7,0.5c-0.2,0.4-0.2,0.7-0.2,1.1v3.2C74.7,26.6,74.6,26.7,74.5,26.7z"
   id="path7" />&#10;		<path
   class="st5"
   d="M59.3,23.9c0,0.4,0,0.8-0.2,1.2c-0.2,0.3-0.5,0.5-0.8,0.5c-0.4,0-0.7-0.3-0.7-0.8c0-1,0.9-1.1,1.7-1.1V23.9z     M60.4,26.7c-0.1,0.1-0.2,0.1-0.3,0c-0.4-0.3-0.4-0.5-0.7-0.8c-0.6,0.6-1.1,0.8-1.9,0.8c-1,0-1.7-0.6-1.7-1.8    c0-0.9,0.5-1.6,1.2-1.9c0.6-0.3,1.5-0.3,2.1-0.4v-0.1c0-0.3,0-0.6-0.1-0.8c-0.1-0.2-0.4-0.3-0.6-0.3c-0.4,0-0.8,0.2-0.9,0.7    c0,0.1-0.1,0.2-0.2,0.2l-1.1-0.1c-0.1,0-0.2-0.1-0.2-0.2c0.3-1.3,1.5-1.7,2.6-1.7c0.6,0,1.3,0.1,1.7,0.6c0.6,0.5,0.5,1.2,0.5,2    v1.8c0,0.5,0.2,0.8,0.4,1.1c0.1,0.1,0.1,0.2,0,0.3C61.1,26.1,60.6,26.5,60.4,26.7L60.4,26.7z"
   id="path8" />&#10;		<path
   class="st5"
   d="M44.3,23.9c0,0.4,0,0.8-0.2,1.2c-0.2,0.3-0.5,0.5-0.8,0.5c-0.4,0-0.7-0.3-0.7-0.8c0-1,0.9-1.1,1.7-1.1V23.9z     M45.4,26.7c-0.1,0.1-0.2,0.1-0.3,0c-0.4-0.3-0.4-0.5-0.7-0.8c-0.6,0.6-1.1,0.8-1.9,0.8c-1,0-1.7-0.6-1.7-1.8    c0-0.9,0.5-1.6,1.2-1.9c0.6-0.3,1.5-0.3,2.1-0.4v-0.1c0-0.3,0-0.6-0.1-0.8c-0.1-0.2-0.4-0.3-0.6-0.3c-0.4,0-0.8,0.2-0.9,0.7    c0,0.1-0.1,0.2-0.2,0.2l-1.1-0.1c-0.1,0-0.2-0.1-0.2-0.2c0.3-1.3,1.5-1.7,2.6-1.7c0.6,0,1.3,0.1,1.7,0.6c0.6,0.5,0.5,1.2,0.5,2    v1.8c0,0.5,0.2,0.8,0.4,1.1c0.1,0.1,0.1,0.2,0,0.3C46.1,26.1,45.7,26.5,45.4,26.7L45.4,26.7z"
   id="path9" />&#10;	</g>&#10;	<g
   id="g17">&#10;		<path
   class="st1"
   d="M82.5,26.7c-0.6,0-1-0.2-1.4-0.5c-0.3-0.3-0.5-0.8-0.5-1.3c0-0.6,0.2-1.1,0.6-1.4c0.4-0.4,1-0.5,1.7-0.5    c0.4,0,0.9,0.1,1.4,0.2v-0.7c0-0.4-0.1-0.7-0.3-0.8c-0.2-0.2-0.5-0.2-0.9-0.2c-0.3,0-0.6,0-0.9,0.1c-0.3,0.1-0.6,0.1-0.9,0.2    c-0.1,0-0.1,0-0.2,0c-0.1,0-0.2-0.1-0.2-0.2v-0.4c0-0.1,0-0.2,0-0.2c0,0,0.1-0.1,0.3-0.2c0.6-0.2,1.3-0.4,2.1-0.4    c0.8,0,1.4,0.2,1.7,0.5c0.4,0.3,0.6,0.8,0.6,1.5v4c0,0.2-0.1,0.3-0.3,0.3h-0.6c-0.2,0-0.3-0.1-0.3-0.2L84.4,26    c-0.3,0.2-0.6,0.4-0.9,0.6C83.1,26.7,82.8,26.7,82.5,26.7z M82.9,25.7c0.2,0,0.5,0,0.7-0.1c0.3-0.1,0.5-0.2,0.7-0.4V24    c-0.4-0.1-0.8-0.1-1.1-0.1c-0.8,0-1.2,0.3-1.2,1c0,0.3,0.1,0.5,0.2,0.6C82.4,25.7,82.6,25.7,82.9,25.7z"
   id="path10" />&#10;		<path
   class="st1"
   d="M87.2,29c-0.2,0-0.3-0.1-0.3-0.3v-8c0-0.2,0.1-0.3,0.3-0.3h0.7c0.2,0,0.3,0.1,0.3,0.2l0.1,0.4    c0.3-0.3,0.6-0.4,0.9-0.6c0.3-0.1,0.7-0.2,1.1-0.2c0.8,0,1.4,0.3,1.8,0.8c0.4,0.6,0.7,1.3,0.7,2.3c0,0.7-0.1,1.2-0.3,1.7    c-0.2,0.5-0.5,0.9-0.9,1.1c-0.4,0.3-0.8,0.4-1.3,0.4c-0.3,0-0.7-0.1-1-0.2c-0.3-0.1-0.6-0.3-0.8-0.5v2.7c0,0.2-0.1,0.3-0.3,0.3    H87.2z M89.7,25.6c0.5,0,0.9-0.2,1.1-0.5c0.2-0.3,0.4-0.9,0.4-1.6c0-0.7-0.1-1.2-0.4-1.6c-0.2-0.3-0.6-0.5-1.1-0.5    c-0.5,0-1,0.2-1.4,0.5v3.2C88.8,25.4,89.2,25.6,89.7,25.6z"
   id="path11" />&#10;		<path
   class="st1"
   d="M93.9,29c-0.2,0-0.3-0.1-0.3-0.3v-8c0-0.2,0.1-0.3,0.3-0.3h0.7c0.2,0,0.3,0.1,0.3,0.2l0.1,0.4    c0.3-0.3,0.6-0.4,0.9-0.6c0.3-0.1,0.7-0.2,1.1-0.2c0.8,0,1.4,0.3,1.8,0.8c0.4,0.6,0.7,1.3,0.7,2.3c0,0.7-0.1,1.2-0.3,1.7    c-0.2,0.5-0.5,0.9-0.9,1.1c-0.4,0.3-0.8,0.4-1.3,0.4c-0.3,0-0.7-0.1-1-0.2c-0.3-0.1-0.6-0.3-0.8-0.5v2.7c0,0.2-0.1,0.3-0.3,0.3    H93.9z M96.5,25.6c0.5,0,0.9-0.2,1.1-0.5c0.2-0.3,0.4-0.9,0.4-1.6c0-0.7-0.1-1.2-0.4-1.6s-0.6-0.5-1.1-0.5c-0.5,0-1,0.2-1.4,0.5    v3.2C95.5,25.4,96,25.6,96.5,25.6z"
   id="path12" />&#10;		<path
   class="st1"
   d="M102.1,26.7c-0.6,0-1.2-0.1-1.7-0.3c-0.1,0-0.2-0.1-0.2-0.1c0-0.1-0.1-0.1-0.1-0.3v-0.4    c0-0.2,0.1-0.2,0.2-0.2c0.1,0,0.2,0,0.3,0.1c0.6,0.2,1.1,0.2,1.5,0.2c0.4,0,0.7-0.1,0.9-0.2c0.2-0.1,0.3-0.3,0.3-0.6    c0-0.2-0.1-0.3-0.2-0.4c-0.1-0.1-0.3-0.2-0.6-0.3l-1-0.4c-0.9-0.3-1.3-0.9-1.3-1.7c0-0.6,0.2-1,0.6-1.3c0.4-0.3,1-0.5,1.7-0.5    c0.5,0,1,0.1,1.5,0.3c0.1,0,0.2,0.1,0.2,0.1c0,0.1,0.1,0.1,0.1,0.3v0.4c0,0.1,0,0.1,0,0.2c0,0-0.1,0.1-0.1,0.1c0,0-0.1,0-0.3-0.1    c-0.5-0.1-0.9-0.2-1.2-0.2c-0.4,0-0.6,0.1-0.8,0.2c-0.2,0.1-0.3,0.3-0.3,0.5c0,0.2,0.1,0.3,0.2,0.4c0.1,0.1,0.3,0.2,0.7,0.4    l0.9,0.4c0.5,0.2,0.8,0.4,1,0.7c0.2,0.3,0.3,0.6,0.3,1c0,0.6-0.2,1.1-0.6,1.4C103.4,26.6,102.8,26.7,102.1,26.7z"
   id="path13" />&#10;		<path
   class="st1"
   d="M107.9,26.6c-0.6,0-1.1-0.1-1.4-0.4c-0.3-0.3-0.5-0.7-0.5-1.3v-3.3h-0.8c-0.2,0-0.3-0.1-0.3-0.3V21    c0-0.1,0-0.2,0.1-0.2c0,0,0.1-0.1,0.2-0.1l0.8-0.1l0.2-1.4c0-0.1,0-0.2,0.1-0.2c0,0,0.1-0.1,0.2-0.1h0.6c0.2,0,0.3,0.1,0.3,0.3    v1.4h1.5c0.2,0,0.3,0.1,0.3,0.3v0.5c0,0.2-0.1,0.3-0.3,0.3h-1.5v3.2c0,0.3,0.1,0.5,0.2,0.6c0.1,0.1,0.4,0.2,0.7,0.2    c0.2,0,0.3,0,0.4,0c0.1,0,0.2,0,0.3,0c0.1,0,0.2,0.1,0.2,0.2v0.4c0,0.1,0,0.2-0.1,0.3c0,0.1-0.1,0.1-0.2,0.1    C108.6,26.6,108.2,26.6,107.9,26.6z"
   id="path14" />&#10;		<path
   class="st1"
   d="M112.5,26.7c-0.9,0-1.6-0.3-2.2-0.9c-0.5-0.6-0.8-1.4-0.8-2.4c0-1,0.3-1.8,0.8-2.4c0.5-0.6,1.2-0.8,2.2-0.8    c0.9,0,1.6,0.3,2.2,0.8c0.5,0.6,0.8,1.4,0.8,2.4c0,1-0.3,1.8-0.8,2.4C114.1,26.5,113.4,26.7,112.5,26.7z M112.5,25.6    c1,0,1.5-0.7,1.5-2.1c0-1.4-0.5-2.1-1.5-2.1c-1,0-1.5,0.7-1.5,2.1C111,24.9,111.5,25.6,112.5,25.6z"
   id="path15" />&#10;		<path
   class="st1"
   d="M116.7,26.6c-0.2,0-0.3-0.1-0.3-0.3v-5.5c0-0.2,0.1-0.3,0.3-0.3h0.6c0.1,0,0.2,0,0.2,0c0,0,0.1,0.1,0.1,0.2    l0.1,0.7c0.3-0.3,0.6-0.6,0.9-0.7c0.3-0.1,0.6-0.2,0.9-0.2h0c0.1,0,0.2,0,0.3,0c0.1,0,0.1,0.1,0.1,0.1c0,0,0,0.1,0,0.3v0.6    c0,0.2-0.1,0.3-0.2,0.3c0,0-0.1,0-0.2,0c-0.1,0-0.2,0-0.3,0c-0.6,0-1.1,0.2-1.6,0.5v4.1c0,0.2-0.1,0.3-0.3,0.3H116.7z"
   id="path16" />&#10;		<path
   class="st1"
   d="M123.5,26.7c-1,0-1.8-0.3-2.3-0.8c-0.5-0.5-0.8-1.3-0.8-2.4c0-1,0.3-1.8,0.8-2.4c0.5-0.6,1.2-0.9,2.1-0.9    c0.8,0,1.4,0.2,1.8,0.6c0.4,0.4,0.6,1,0.6,1.8c0,0.3,0,0.6-0.1,0.8c0,0.1,0,0.2-0.1,0.2c0,0-0.1,0.1-0.2,0.1h-3.7    c0,0.6,0.2,1,0.5,1.3c0.3,0.3,0.8,0.4,1.4,0.4c0.5,0,1-0.1,1.5-0.2c0.1,0,0.1,0,0.1,0c0,0,0.1,0,0.1,0c0.1,0,0.2,0.1,0.2,0.2V26    c0,0.1,0,0.2-0.1,0.3c0,0.1-0.1,0.1-0.2,0.1C124.7,26.6,124.1,26.7,123.5,26.7z M124.5,22.9L124.5,22.9c0-0.6-0.1-0.9-0.3-1.2    c-0.2-0.3-0.5-0.4-0.9-0.4c-0.4,0-0.8,0.1-1,0.4c-0.3,0.3-0.4,0.7-0.5,1.2H124.5z"
   id="path17" />&#10;	</g>&#10;</g>&#10;<g
   id="g19">&#10;	<path
   class="st5"
   d="M63.8,28.9c-2.1,1.6-5.3,2.4-7.9,2.4c-3.8,0-7.1-1.4-9.7-3.7c-0.2-0.2,0-0.4,0.2-0.3c2.8,1.6,6.2,2.6,9.7,2.6   c2.4,0,5-0.5,7.4-1.5C63.9,28.3,64.2,28.7,63.8,28.9z"
   id="path18" />&#10;	<path
   class="st5"
   d="M64.7,27.9c-0.3-0.4-1.8-0.2-2.5-0.1c-0.2,0-0.2-0.2-0.1-0.3c1.2-0.9,3.2-0.6,3.5-0.3c0.2,0.3-0.1,2.3-1.2,3.3   c-0.2,0.1-0.3,0.1-0.3-0.1C64.4,29.7,65,28.3,64.7,27.9z"
   id="path19" />&#10;</g>&#10;<g
   id="g37"
   transform="matrix(0.99610895,0,0,1,-0.06070039,0)">&#10;	<path
   class="st6"
   d="m 14.4,32.8 h 17.1 c 2.4,0 4.3,-1.9 4.3,-4.3 v -17 C 35.8,9.1 33.9,7.2 31.5,7.2 H 14.4 c -2.4,0 -4.3,1.9 -4.3,4.3 v 17.1 c 0,2.3 1.9,4.2 4.3,4.2 z"
   id="path20" />&#10;	<g
   id="g28">&#10;		<path
   class="st7"
   d="m 14.3,24.2 c -0.2,0 -0.4,-0.1 -0.6,-0.2 -0.1,-0.1 -0.2,-0.3 -0.2,-0.5 0,-0.2 0.1,-0.4 0.3,-0.6 0.2,-0.1 0.4,-0.2 0.7,-0.2 0.2,0 0.4,0 0.6,0.1 v -0.3 c 0,-0.2 0,-0.3 -0.1,-0.4 C 14.9,22 14.8,22 14.6,22 c -0.1,0 -0.2,0 -0.4,0 -0.1,0 -0.3,0.1 -0.4,0.1 0,0 -0.1,0 -0.1,0 0,0 -0.1,0 -0.1,-0.1 v -0.2 c 0,0 0,-0.1 0,-0.1 0,0 0,0 0.1,-0.1 0.3,-0.1 0.5,-0.1 0.9,-0.1 0.3,0 0.6,0.1 0.7,0.2 0.2,0.1 0.2,0.3 0.2,0.6 V 24 c 0,0.1 0,0.1 -0.1,0.1 H 15.1 C 15,24.1 15,24.1 15,24 v -0.1 c -0.1,0.1 -0.2,0.2 -0.4,0.2 -0.1,0 -0.2,0.1 -0.3,0.1 z m 0.1,-0.5 c 0.1,0 0.2,0 0.3,-0.1 0.1,0 0.2,-0.1 0.3,-0.2 V 23 c -0.2,0 -0.3,-0.1 -0.5,-0.1 -0.3,0 -0.5,0.1 -0.5,0.4 0,0.1 0,0.2 0.1,0.3 0.1,0.1 0.2,0.1 0.3,0.1 z"
   id="path21" />&#10;		<path
   class="st7"
   d="m 16.2,25.1 c -0.1,0 -0.1,0 -0.1,-0.1 v -3.3 c 0,-0.1 0,-0.1 0.1,-0.1 h 0.3 c 0.1,0 0.1,0 0.1,0.1 v 0.2 c 0.1,-0.1 0.2,-0.2 0.4,-0.2 0.1,-0.1 0.3,-0.1 0.4,-0.1 0.3,0 0.6,0.1 0.8,0.4 0.2,0.2 0.3,0.6 0.3,1 0,0.3 0,0.5 -0.1,0.7 -0.1,0.2 -0.2,0.4 -0.4,0.5 -0.2,0.1 -0.3,0.2 -0.6,0.2 -0.1,0 -0.3,0 -0.4,-0.1 -0.1,0 -0.2,-0.1 -0.3,-0.2 V 25 c 0,0.1 0,0.1 -0.1,0.1 z m 1.1,-1.4 c 0.2,0 0.4,-0.1 0.5,-0.2 0.1,-0.1 0.2,-0.4 0.2,-0.7 0,-0.3 -0.1,-0.5 -0.2,-0.6 -0.1,-0.1 -0.3,-0.2 -0.5,-0.2 -0.2,0 -0.4,0.1 -0.6,0.2 v 1.4 c 0.2,0 0.4,0.1 0.6,0.1 z"
   id="path22" />&#10;		<path
   class="st7"
   d="M 19.1,25.1 C 19,25.1 19,25.1 19,25 v -3.3 c 0,-0.1 0,-0.1 0.1,-0.1 h 0.3 c 0.1,0 0.1,0 0.1,0.1 v 0.2 c 0.1,-0.1 0.2,-0.2 0.4,-0.2 0.1,-0.1 0.3,-0.1 0.4,-0.1 0.3,0 0.6,0.1 0.8,0.4 0.2,0.2 0.3,0.6 0.3,1 0,0.3 0,0.5 -0.1,0.7 -0.1,0.2 -0.2,0.4 -0.4,0.5 -0.2,0.1 -0.3,0.2 -0.6,0.2 -0.1,0 -0.3,0 -0.4,-0.1 -0.1,0 -0.2,-0.1 -0.3,-0.2 V 25 c 0,0.1 0,0.1 -0.1,0.1 z m 1,-1.4 c 0.2,0 0.4,-0.1 0.5,-0.2 0.1,-0.1 0.2,-0.4 0.2,-0.7 0,-0.3 -0.1,-0.5 -0.2,-0.6 -0.1,-0.1 -0.3,-0.2 -0.5,-0.2 -0.2,0 -0.4,0.1 -0.6,0.2 v 1.4 c 0.2,0 0.4,0.1 0.6,0.1 z"
   id="path23" />&#10;		<path
   class="st7"
   d="m 22.5,24.2 c -0.3,0 -0.5,0 -0.7,-0.1 -0.1,0 -0.1,0 -0.1,-0.1 0,0 0,-0.1 0,-0.1 v -0.2 c 0,-0.1 0,-0.1 0.1,-0.1 0,0 0.1,0 0.1,0 0.2,0.1 0.4,0.1 0.6,0.1 0.2,0 0.3,0 0.4,-0.1 0.1,-0.1 0.1,-0.1 0.1,-0.2 0,-0.1 0,-0.1 -0.1,-0.2 0,0 -0.1,-0.1 -0.3,-0.1 l -0.4,-0.2 c -0.4,-0.1 -0.6,-0.4 -0.6,-0.7 0,-0.2 0.1,-0.4 0.3,-0.6 0.2,-0.1 0.4,-0.2 0.7,-0.2 0.2,0 0.4,0 0.6,0.1 0,0 0.1,0 0.1,0.1 0,0 0,0.1 0,0.1 v 0.2 c 0,0 0,0.1 0,0.1 0,0 0,0 -0.1,0 0,0 -0.1,0 -0.1,0 -0.2,0 -0.4,-0.1 -0.5,-0.1 -0.2,0 -0.3,0 -0.3,0.1 -0.1,0 -0.1,0.1 -0.1,0.2 0,0.1 0,0.1 0.1,0.2 0.1,0 0.1,0.1 0.3,0.1 l 0.4,0.1 c 0.2,0.1 0.3,0.2 0.4,0.3 0.1,0.1 0.1,0.2 0.1,0.4 0,0.2 -0.1,0.4 -0.3,0.6 -0.2,0.2 -0.4,0.3 -0.7,0.3 z"
   id="path24" />&#10;		<path
   class="st7"
   d="m 24.9,24.1 c -0.3,0 -0.5,-0.1 -0.6,-0.2 -0.1,-0.1 -0.2,-0.3 -0.2,-0.6 V 22 h -0.3 c -0.1,0 -0.1,0 -0.1,-0.1 v -0.1 c 0,0 0,-0.1 0,-0.1 0,0 0,0 0.1,0 h 0.3 l 0.1,-0.6 c 0,0 0,-0.1 0,-0.1 0,0 0,0 0.1,0 h 0.3 c 0.1,0 0.1,0 0.1,0.1 v 0.6 h 0.6 c 0.1,0 0.1,0 0.1,0.1 V 22 c 0,0.1 0,0.1 -0.1,0.1 h -0.6 v 1.3 c 0,0.1 0,0.2 0.1,0.2 0.1,0 0.1,0.1 0.3,0.1 0.1,0 0.1,0 0.2,0 0,0 0.1,0 0.1,0 0.1,0 0.1,0 0.1,0.1 V 24 c 0,0.1 0,0.1 0,0.1 0,0 -0.1,0 -0.1,0.1 -0.2,-0.1 -0.4,-0.1 -0.5,-0.1 z"
   id="path25" />&#10;		<path
   class="st7"
   d="m 26.8,24.2 c -0.4,0 -0.7,-0.1 -0.9,-0.4 -0.2,-0.2 -0.3,-0.6 -0.3,-1 0,-0.4 0.1,-0.7 0.3,-1 0.2,-0.2 0.5,-0.4 0.9,-0.4 0.4,0 0.7,0.1 0.9,0.4 0.2,0.2 0.3,0.6 0.3,1 0,0.4 -0.1,0.8 -0.3,1 -0.2,0.2 -0.5,0.4 -0.9,0.4 z m 0,-0.5 c 0.4,0 0.6,-0.3 0.6,-0.9 0,-0.6 -0.2,-0.9 -0.6,-0.9 -0.4,0 -0.6,0.3 -0.6,0.9 0,0.6 0.2,0.9 0.6,0.9 z"
   id="path26" />&#10;		<path
   class="st7"
   d="m 28.6,24.1 c -0.1,0 -0.1,0 -0.1,-0.1 v -2.3 c 0,-0.1 0,-0.1 0.1,-0.1 h 0.3 c 0,0 0.1,0 0.1,0 0,0 0,0 0,0.1 l 0.1,0.3 c 0.1,-0.1 0.3,-0.2 0.4,-0.3 0.1,-0.1 0.2,-0.1 0.4,-0.1 v 0 c 0,0 0.1,0 0.1,0 0,0 0,0 0.1,0 0,0 0,0.1 0,0.1 V 22 c 0,0.1 0,0.1 -0.1,0.1 0,0 0,0 -0.1,0 0,0 -0.1,0 -0.1,0 -0.2,0 -0.5,0.1 -0.7,0.2 V 24 c 0,0.1 0,0.1 -0.1,0.1 z"
   id="path27" />&#10;		<path
   class="st7"
   d="m 31.4,24.2 c -0.4,0 -0.7,-0.1 -1,-0.3 -0.2,-0.2 -0.3,-0.6 -0.3,-1 0,-0.4 0.1,-0.8 0.3,-1 0.2,-0.2 0.5,-0.4 0.9,-0.4 0.3,0 0.6,0.1 0.7,0.3 0.2,0.2 0.3,0.4 0.3,0.8 0,0.1 0,0.2 0,0.4 0,0 0,0.1 0,0.1 0,0 0,0 -0.1,0 h -1.5 c 0,0.3 0.1,0.4 0.2,0.6 0.1,0.1 0.3,0.2 0.6,0.2 0.2,0 0.4,0 0.6,-0.1 0,0 0,0 0.1,0 0,0 0,0 0,0 0,0 0.1,0 0.1,0.1 v 0.2 c 0,0 0,0.1 0,0.1 0,0 0,0 -0.1,0.1 -0.3,-0.2 -0.5,-0.1 -0.8,-0.1 z m 0.4,-1.6 v 0 c 0,-0.2 0,-0.4 -0.1,-0.5 -0.1,-0.1 -0.2,-0.2 -0.4,-0.2 -0.2,0 -0.3,0.1 -0.4,0.2 -0.1,0.1 -0.2,0.3 -0.2,0.5 z"
   id="path28" />&#10;	</g>&#10;	<g
   id="g36">&#10;		<path
   class="st8"
   d="m 24.8,18.5 c -0.9,0.7 -2.2,1 -3.3,1 -1.6,0 -3,-0.6 -4,-1.5 -0.1,-0.1 0,-0.2 0.1,-0.1 1.2,0.7 2.6,1.1 4,1.1 1,0 2.1,-0.2 3.1,-0.6 0.1,-0.2 0.2,0 0.1,0.1 z"
   id="path29" />&#10;		<path
   class="st8"
   d="M 25.1,18.1 C 25,18 24.3,18 24.1,18.1 24,18.1 24,18 24.1,18 c 0.5,-0.4 1.4,-0.3 1.4,-0.1 0.1,0.1 0,1 -0.5,1.4 -0.1,0.1 -0.1,0 -0.1,-0.1 0.1,-0.4 0.3,-1 0.2,-1.1 z"
   id="path30" />&#10;		<path
   class="st8"
   d="M 24.1,15.4 V 15 c 0,-0.1 0,-0.1 0.1,-0.1 h 1.6 c 0.1,0 0.1,0 0.1,0.1 v 0.3 c 0,0.1 0,0.1 -0.1,0.2 L 25,16.7 c 0.3,0 0.6,0 0.9,0.2 0.1,0 0.1,0.1 0.1,0.1 v 0.4 c 0,0.1 -0.1,0.1 -0.1,0.1 -0.5,-0.3 -1.1,-0.3 -1.7,0 -0.1,0 -0.1,0 -0.1,-0.1 V 17 c 0,-0.1 0,-0.2 0.1,-0.2 l 0.9,-1.3 -1,-0.1 c 0,0.1 0,0.1 0,0 z"
   id="path31" />&#10;		<path
   class="st8"
   d="m 18.4,17.6 h -0.5 c 0,0 -0.1,0 -0.1,-0.1 v -2.4 c 0,0 0,-0.1 0.1,-0.1 h 0.4 c 0,0 0.1,0 0.1,0.1 v 0.3 0 c 0.1,-0.3 0.3,-0.5 0.6,-0.5 0.3,0 0.5,0.1 0.6,0.5 0.1,-0.3 0.4,-0.5 0.7,-0.5 0.2,0 0.4,0.1 0.6,0.3 0.2,0.2 0.1,0.5 0.1,0.8 v 1.5 c 0,0 0,0.1 -0.1,0.1 h -0.5 c 0,0 -0.1,0 -0.1,-0.1 v -1.3 c 0,-0.1 0,-0.4 0,-0.5 0,-0.2 -0.1,-0.2 -0.3,-0.2 -0.1,0 -0.2,0.1 -0.3,0.2 0,0.1 0,0.3 0,0.5 v 1.3 c 0,0 0,0.1 -0.1,0.1 h -0.5 c 0,0 -0.1,0 -0.1,-0.1 v -1.3 c 0,-0.3 0,-0.7 -0.3,-0.7 -0.3,0 -0.3,0.4 -0.3,0.7 v 1.4 c 0.1,-0.1 0,0 0,0 z"
   id="path32" />&#10;		<path
   class="st8"
   d="m 27.2,14.9 c 0.7,0 1.1,0.6 1.1,1.4 0,0.7 -0.4,1.3 -1.1,1.3 -0.7,0 -1.1,-0.6 -1.1,-1.4 0,-0.7 0.4,-1.3 1.1,-1.3 z m 0,0.5 c -0.4,0 -0.4,0.5 -0.4,0.8 0,0.3 0,0.9 0.4,0.9 0.4,0 0.4,-0.5 0.4,-0.8 0,-0.2 0,-0.5 -0.1,-0.6 0,-0.2 -0.2,-0.3 -0.3,-0.3 z"
   id="path33" />&#10;		<path
   class="st8"
   d="m 29.2,17.6 h -0.5 c 0,0 -0.1,0 -0.1,-0.1 v -2.4 c 0,0 0,-0.1 0.1,-0.1 h 0.4 c 0,0 0.1,0 0.1,0.1 v 0.4 0 c 0.1,-0.3 0.3,-0.5 0.6,-0.5 0.2,0 0.4,0.1 0.6,0.3 0.1,0.2 0.1,0.5 0.1,0.8 v 1.5 c 0,0 0,0.1 -0.1,0.1 H 30 c 0,0 -0.1,0 -0.1,-0.1 v -1.3 c 0,-0.3 0,-0.7 -0.3,-0.7 -0.1,0 -0.2,0.1 -0.3,0.2 -0.1,0.1 -0.1,0.3 -0.1,0.5 v 1.3 c 0.1,-0.1 0.1,0 0,0 z"
   id="path34" />&#10;		<path
   class="st8"
   d="m 22.9,16.4 c 0,0.2 0,0.3 -0.1,0.5 -0.1,0.1 -0.2,0.2 -0.3,0.2 -0.2,0 -0.3,-0.1 -0.3,-0.3 0,-0.4 0.4,-0.5 0.7,-0.5 z m 0.4,1.2 c 0,0 -0.1,0 -0.1,0 -0.2,-0.1 -0.2,-0.2 -0.3,-0.3 -0.3,0.3 -0.4,0.3 -0.8,0.3 -0.4,0 -0.7,-0.2 -0.7,-0.7 0,-0.4 0.2,-0.7 0.5,-0.8 0.3,-0.1 0.6,-0.1 0.9,-0.2 v -0.1 c 0,-0.1 0,-0.2 -0.1,-0.3 -0.1,-0.1 -0.2,-0.1 -0.3,-0.1 -0.2,0 -0.3,0.1 -0.4,0.3 0,0 0,0.1 -0.1,0.1 l -0.5,-0.1 c 0,0 -0.1,0 -0.1,-0.1 0.1,-0.6 0.6,-0.7 1.1,-0.7 0.2,0 0.5,0.1 0.7,0.2 0.2,0.2 0.2,0.5 0.2,0.8 v 0.7 c 0,0.2 0.1,0.3 0.2,0.4 0,0 0,0.1 0,0.1 0.1,0.2 -0.1,0.4 -0.2,0.5 z"
   id="path35" />&#10;		<path
   class="st8"
   d="m 16.6,16.4 c 0,0.2 0,0.3 -0.1,0.5 -0.1,0.1 -0.2,0.2 -0.3,0.2 -0.2,0 -0.3,-0.1 -0.3,-0.3 0,-0.4 0.4,-0.5 0.7,-0.5 z m 0.5,1.2 c 0,0 -0.1,0 -0.1,0 -0.2,-0.1 -0.2,-0.2 -0.3,-0.3 -0.3,0.3 -0.4,0.3 -0.8,0.3 -0.4,0 -0.7,-0.2 -0.7,-0.7 0,-0.4 0.2,-0.7 0.5,-0.8 C 16,16 16.3,16 16.6,15.9 v -0.1 c 0,-0.1 0,-0.2 -0.1,-0.3 -0.1,-0.1 -0.2,-0.1 -0.3,-0.1 -0.2,0 -0.3,0.1 -0.4,0.3 0,0 0,0.1 -0.1,0.1 l -0.5,-0.1 c 0,0 -0.1,0 -0.1,-0.1 0.1,-0.6 0.6,-0.7 1.1,-0.7 0.2,0 0.5,0.1 0.7,0.2 0.2,0.2 0.2,0.5 0.2,0.8 v 0.7 c 0,0.2 0.1,0.3 0.2,0.4 0,0 0,0.1 0,0.1 0.1,0.2 -0.1,0.4 -0.2,0.5 z"
   id="path36" />&#10;	</g>&#10;</g>&#10;</svg>
