<?xml version="1.0" encoding="UTF-8" standalone="no"?>
<!-- Generator: Adobe Illustrator 27.9.0, SVG Export Plug-In . SVG Version: 6.00 Build 0)  -->

<svg
   version="1.1"
   id="Badge"
   x="0px"
   y="0px"
   viewBox="0 0 135 40"
   style="enable-background:new 0 0 135 40;"
   xml:space="preserve"
   sodipodi:docname="Bazaar.svg"
   inkscape:version="1.3 (0e150ed6c4, 2023-07-21)"
   xmlns:inkscape="http://www.inkscape.org/namespaces/inkscape"
   xmlns:sodipodi="http://sodipodi.sourceforge.net/DTD/sodipodi-0.dtd"
   xmlns="http://www.w3.org/2000/svg"
   xmlns:svg="http://www.w3.org/2000/svg"><defs
   id="defs10"><linearGradient
     id="SVGID_1_-1"
     gradientUnits="userSpaceOnUse"
     x1="110.8248"
     y1="230.3701"
     x2="110.8248"
     y2="-9.094947e-13"
     gradientTransform="matrix(0.11106282,0,0,0.11106282,10.007581,7.2000194)">&#10;	<stop
   offset="0"
   style="stop-color:#009D55"
   id="stop1" />&#10;	<stop
   offset="1"
   style="stop-color:#A2D70E"
   id="stop2" />&#10;</linearGradient></defs><sodipodi:namedview
   id="namedview10"
   pagecolor="#ffffff"
   bordercolor="#000000"
   borderopacity="0.25"
   inkscape:showpageshadow="2"
   inkscape:pageopacity="0.0"
   inkscape:pagecheckerboard="0"
   inkscape:deskcolor="#d1d1d1"
   inkscape:zoom="7.9851852"
   inkscape:cx="67.5"
   inkscape:cy="19.97449"
   inkscape:window-width="1920"
   inkscape:window-height="974"
   inkscape:window-x="-11"
   inkscape:window-y="-11"
   inkscape:window-maximized="1"
   inkscape:current-layer="Badge" />&#10;<style
   type="text/css"
   id="style1">&#10;	.st0{fill:#A6A6A6;}&#10;	.st1{fill:#FFFFFF;}&#10;	.st2{font-family:'ProductSans-Regular';}&#10;	.st3{font-size:8.38px;}&#10;	.st4{fill:none;stroke:#FFFFFF;stroke-width:0.2;stroke-miterlimit:10;}&#10;	.st5{fill:url(#SVGID_1_);}&#10;</style>&#10;<g
   id="g1">&#10;	<path
   d="M130,40H5c-2.8,0-5-2.2-5-5V5c0-2.8,2.2-5,5-5h125c2.8,0,5,2.2,5,5v30C135,37.8,132.8,40,130,40z"
   id="path1" />&#10;</g>&#10;<g
   id="g3">&#10;	<g
   id="g2">&#10;		<path
   class="st0"
   d="M130,0.8c2.3,0,4.2,1.9,4.2,4.2v30c0,2.3-1.9,4.2-4.2,4.2H5c-2.3,0-4.2-1.9-4.2-4.2V5c0-2.3,1.9-4.2,4.2-4.2    L130,0.8 M130,0H5C2.2,0,0,2.3,0,5v30c0,2.8,2.2,5,5,5h125c2.8,0,5-2.2,5-5V5C135,2.3,132.8,0,130,0L130,0z"
   id="path2" />&#10;	</g>&#10;</g>&#10;<text
   transform="matrix(1 0 0 1 41.0413 13.0001)"
   class="st1 st2 st3"
   id="text3">GET IT ON</text>&#10;<text
   transform="matrix(1 0 0 1 41.0413 13.0001)"
   class="st4 st2 st3"
   id="text4">GET IT ON</text>&#10;<g
   id="g9">&#10;	<path
   class="st1"
   d="M57.3,22.1c-0.7,0-1.2,0.5-1.2,1.2l0,0c-0.3-0.5-1-1.1-2.3-1.1c-2.1,0-4,1.6-4,4.2c0,2.3,1.5,4.3,4,4.3   c0.9,0,1.9-0.4,2.3-1.1c0,0.6,0.5,1.1,1.1,1.1h0.1c0.6,0,1.1-0.5,1.1-1.1v-6.3C58.5,22.6,58,22.1,57.3,22.1z M56.1,26.6   c0,0.4-0.1,0.7-0.3,1c-0.3,0.5-0.8,0.9-1.7,0.9c-1.4,0-2-1.3-2-2l0,0c0-0.9,0.6-2,2-2c1,0,1.5,0.6,1.8,1.1   C56.1,25.8,56.2,26.2,56.1,26.6z"
   id="path4" />&#10;	<path
   class="st1"
   d="M73.8,22.1c-0.7,0-1.2,0.5-1.2,1.2l0,0c-0.3-0.5-1-1.1-2.3-1.1c-2.1,0-4,1.6-4,4.2c0,2.3,1.5,4.3,4,4.3   c0.9,0,1.9-0.4,2.3-1.1c0,0.6,0.5,1.1,1.1,1.1h0.1c0.6,0,1.1-0.5,1.1-1.1v-6.3C75,22.6,74.5,22.1,73.8,22.1z M72.6,26.6   c0,0.4-0.1,0.7-0.3,1c-0.3,0.5-0.8,0.9-1.7,0.9c-1.4,0-2-1.3-2-2l0,0c0-0.9,0.6-2,2-2c1,0,1.5,0.6,1.8,1.1   C72.6,25.8,72.7,26.2,72.6,26.6z"
   id="path5" />&#10;	<path
   class="st1"
   d="M83.9,22.1c-0.7,0-1.2,0.5-1.2,1.2l0,0c-0.3-0.5-1-1.1-2.3-1.1c-2.1,0-4,1.6-4,4.2c0,2.3,1.5,4.3,4,4.3   c0.9,0,1.9-0.4,2.3-1.1c0,0.6,0.5,1.1,1.1,1.1H84c0.6,0,1.1-0.5,1.1-1.1v-6.3C85.1,22.6,84.6,22.1,83.9,22.1z M82.7,26.6   c0,0.4-0.1,0.7-0.3,1c-0.3,0.5-0.8,0.9-1.7,0.9c-1.4,0-2-1.3-2-2l0,0c0-0.9,0.6-2,2-2c1,0,1.5,0.6,1.8,1.1   C82.7,25.8,82.8,26.2,82.7,26.6z"
   id="path6" />&#10;	<path
   class="st1"
   d="M65.6,23.8c0-0.8-0.6-1.4-1.4-1.4h-3.6c-0.5,0-0.9,0.4-0.9,0.9s0.4,0.9,0.9,0.9H63l-3.1,4.2   c-0.2,0.2-0.2,0.5-0.2,0.7c0,0.7,0.5,1.2,1.2,1.2h3.8c0.5,0,0.9-0.4,0.9-0.9s-0.4-0.9-0.9-0.9h-2.2l2.9-4   C65.5,24.4,65.6,24.1,65.6,23.8z"
   id="path7" />&#10;	<path
   class="st1"
   d="M91.6,22.2h-1.5c-1.7,0-3,1.4-3,3v4.3c0,0.6,0.5,1.2,1.2,1.2l0,0c0.6,0,1.2-0.5,1.2-1.2v-4.3   c0-0.4,0.3-0.7,0.7-0.7h1.5c0.6,0,1.2-0.5,1.2-1.2C92.7,22.7,92.2,22.2,91.6,22.2z"
   id="path8" />&#10;	<path
   class="st1"
   d="M47.2,24.7c0.7-0.3,0.9-1.3,0.9-2c0-1.6-1.5-3-3.2-3h-3.8v10.6h4.2c2.2,0,3.4-1.3,3.4-3.1   C48.7,26.2,48,25.1,47.2,24.7z M43.4,22c0,0,0.7,0,1.2,0c0.7,0,1.2,0.3,1.2,1.1c0,0.8-0.6,1.1-1.2,1.1c-0.5,0-1.2,0-1.2,0V22z    M45.3,28.2c-0.5,0-1.9,0-1.9,0v-2.1c0,0,1.4,0,1.9,0c0.7,0,1.2,0.3,1.2,1C46.5,27.9,46,28.2,45.3,28.2z"
   id="path9" />&#10;</g>&#10;<linearGradient
   id="SVGID_1_"
   gradientUnits="userSpaceOnUse"
   x1="22.35"
   y1="9.1666"
   x2="22.35"
   y2="34.8334"
   gradientTransform="matrix(1 0 0 -1 0 42)">&#10;	<stop
   offset="0"
   style="stop-color:#009D55"
   id="stop9" />&#10;	<stop
   offset="1"
   style="stop-color:#A2D70E"
   id="stop10" />&#10;</linearGradient>&#10;&#10;<path
   class="st0"
   d="m 34.441395,15.574156 v 0 c -0.377606,-0.277659 -1.110627,-0.644161 -2.521121,-0.977352 -0.422038,-0.09995 -0.899613,-0.199918 -1.454926,-0.288767 -0.810759,-0.122166 -1.621519,-0.22212 -2.432268,-0.299863 l -0.133285,-0.01113 C 27.710992,13.552796 27.511083,13.097439 27.311165,12.619869 27.2001,12.364421 27.100151,12.108972 26.989077,11.83132 l -0.04436,-0.09995 C 26.533782,10.720687 26.111745,9.687805 25.367618,8.7659833 24.534648,7.7553128 23.457338,7.2000005 22.324501,7.2000005 c -1.132838,0 -2.221244,0.5553123 -3.043108,1.5770892 -0.744127,0.9218217 -1.166164,1.9547043 -1.577097,2.9542753 l -0.04436,0.09995 c -0.111074,0.277652 -0.211023,0.533101 -0.322088,0.788549 -0.211024,0.47757 -0.399827,0.932927 -0.58863,1.377178 l -0.133275,0.01113 c -0.944035,0.08885 -1.743694,0.188804 -2.443388,0.310971 -0.555313,0.08884 -1.032888,0.188811 -1.454926,0.288767 -1.410494,0.33319 -2.143515,0.699691 -2.521125,0.977352 h -0.01111 c -0.133276,0.09995 -0.2110206,0.266546 -0.177701,0.433144 l 0.122169,0.910718 c 0.188809,1.354961 0.38872,2.954269 0.710798,4.597998 0.24434,1.243902 0.566419,2.510015 1.010677,3.731716 0.177698,0.477564 0.366511,0.95514 0.577525,1.410495 1.466021,2.943158 4.153749,5.086673 7.352363,5.841904 0.83297,0.188803 1.677046,0.288762 2.532227,0.288762 0.866286,0 1.710362,-0.09996 2.521121,-0.288762 3.265247,-0.766337 5.997392,-2.96538 7.441212,-5.986296 0.166592,-0.366501 0.322079,-0.733011 0.455354,-1.121732 0.999562,-2.698828 1.388284,-5.675303 1.710372,-8.040937 l 0.177698,-1.343866 c 0.02223,-0.18881 -0.04446,-0.344295 -0.177698,-0.44425 z M 22.324441,13.797149 c -1.143943,0 -2.187927,0.02224 -3.131952,0.05553 l 0.155477,-0.366508 c 0.12217,-0.277653 0.233234,-0.566419 0.344299,-0.832965 0.255446,-0.633064 0.499786,-1.243906 0.810759,-1.788112 0.144381,-0.255449 0.299858,-0.488677 0.477555,-0.710807 0.233235,-0.2887576 0.71081,-0.7663277 1.332756,-0.7663277 0.621956,0 1.110637,0.4775701 1.332756,0.7663277 0.177708,0.22213 0.3443,0.466465 0.477565,0.710807 0.310983,0.544206 0.555314,1.155048 0.810759,1.788112 0.111065,0.277653 0.22213,0.555312 0.3443,0.832965 l 0.155486,0.366508 c -0.932929,-0.03329 -1.965807,-0.05553 -3.10976,-0.05553 z"
   id="path2-4"
   style="fill:url(#SVGID_1_-1);stroke-width:0.111063" /></svg>
