<?xml version="1.0" encoding="utf-8"?>
<!-- Generator: Adobe Illustrator 27.9.0, SVG Export Plug-In . SVG Version: 6.00 Build 0)  -->
<svg version="1.1" id="Badge" xmlns="http://www.w3.org/2000/svg" xmlns:xlink="http://www.w3.org/1999/xlink" x="0px" y="0px"
	 viewBox="0 0 135 40" style="enable-background:new 0 0 135 40;" xml:space="preserve">
<style type="text/css">
	.st0{fill:#A6A6A6;}
	.st1{fill:#FFFFFF;}
	.st2{font-family:'ProductSans-Regular';}
	.st3{font-size:8.38px;}
	.st4{fill:none;stroke:#FFFFFF;stroke-width:0.2;stroke-miterlimit:10;}
	.st5{fill:url(#SVGID_1_);}
</style>
<g>
	<path d="M130,40H5c-2.8,0-5-2.2-5-5V5c0-2.8,2.2-5,5-5h125c2.8,0,5,2.2,5,5v30C135,37.8,132.8,40,130,40z"/>
</g>
<g>
	<g>
		<path class="st0" d="M130,0.8c2.3,0,4.2,1.9,4.2,4.2v30c0,2.3-1.9,4.2-4.2,4.2H5c-2.3,0-4.2-1.9-4.2-4.2V5c0-2.3,1.9-4.2,4.2-4.2
			L130,0.8 M130,0H5C2.2,0,0,2.3,0,5v30c0,2.8,2.2,5,5,5h125c2.8,0,5-2.2,5-5V5C135,2.3,132.8,0,130,0L130,0z"/>
	</g>
</g>
<text transform="matrix(1 0 0 1 41.0413 13.0001)" class="st1 st2 st3">GET IT ON</text>
<text transform="matrix(1 0 0 1 41.0413 13.0001)" class="st4 st2 st3">GET IT ON</text>
<g>
	<path class="st1" d="M57.3,22.1c-0.7,0-1.2,0.5-1.2,1.2l0,0c-0.3-0.5-1-1.1-2.3-1.1c-2.1,0-4,1.6-4,4.2c0,2.3,1.5,4.3,4,4.3
		c0.9,0,1.9-0.4,2.3-1.1c0,0.6,0.5,1.1,1.1,1.1h0.1c0.6,0,1.1-0.5,1.1-1.1v-6.3C58.5,22.6,58,22.1,57.3,22.1z M56.1,26.6
		c0,0.4-0.1,0.7-0.3,1c-0.3,0.5-0.8,0.9-1.7,0.9c-1.4,0-2-1.3-2-2l0,0c0-0.9,0.6-2,2-2c1,0,1.5,0.6,1.8,1.1
		C56.1,25.8,56.2,26.2,56.1,26.6z"/>
	<path class="st1" d="M73.8,22.1c-0.7,0-1.2,0.5-1.2,1.2l0,0c-0.3-0.5-1-1.1-2.3-1.1c-2.1,0-4,1.6-4,4.2c0,2.3,1.5,4.3,4,4.3
		c0.9,0,1.9-0.4,2.3-1.1c0,0.6,0.5,1.1,1.1,1.1h0.1c0.6,0,1.1-0.5,1.1-1.1v-6.3C75,22.6,74.5,22.1,73.8,22.1z M72.6,26.6
		c0,0.4-0.1,0.7-0.3,1c-0.3,0.5-0.8,0.9-1.7,0.9c-1.4,0-2-1.3-2-2l0,0c0-0.9,0.6-2,2-2c1,0,1.5,0.6,1.8,1.1
		C72.6,25.8,72.7,26.2,72.6,26.6z"/>
	<path class="st1" d="M83.9,22.1c-0.7,0-1.2,0.5-1.2,1.2l0,0c-0.3-0.5-1-1.1-2.3-1.1c-2.1,0-4,1.6-4,4.2c0,2.3,1.5,4.3,4,4.3
		c0.9,0,1.9-0.4,2.3-1.1c0,0.6,0.5,1.1,1.1,1.1H84c0.6,0,1.1-0.5,1.1-1.1v-6.3C85.1,22.6,84.6,22.1,83.9,22.1z M82.7,26.6
		c0,0.4-0.1,0.7-0.3,1c-0.3,0.5-0.8,0.9-1.7,0.9c-1.4,0-2-1.3-2-2l0,0c0-0.9,0.6-2,2-2c1,0,1.5,0.6,1.8,1.1
		C82.7,25.8,82.8,26.2,82.7,26.6z"/>
	<path class="st1" d="M65.6,23.8c0-0.8-0.6-1.4-1.4-1.4h-3.6c-0.5,0-0.9,0.4-0.9,0.9s0.4,0.9,0.9,0.9H63l-3.1,4.2
		c-0.2,0.2-0.2,0.5-0.2,0.7c0,0.7,0.5,1.2,1.2,1.2h3.8c0.5,0,0.9-0.4,0.9-0.9s-0.4-0.9-0.9-0.9h-2.2l2.9-4
		C65.5,24.4,65.6,24.1,65.6,23.8z"/>
	<path class="st1" d="M91.6,22.2h-1.5c-1.7,0-3,1.4-3,3v4.3c0,0.6,0.5,1.2,1.2,1.2l0,0c0.6,0,1.2-0.5,1.2-1.2v-4.3
		c0-0.4,0.3-0.7,0.7-0.7h1.5c0.6,0,1.2-0.5,1.2-1.2C92.7,22.7,92.2,22.2,91.6,22.2z"/>
	<path class="st1" d="M47.2,24.7c0.7-0.3,0.9-1.3,0.9-2c0-1.6-1.5-3-3.2-3h-3.8v10.6h4.2c2.2,0,3.4-1.3,3.4-3.1
		C48.7,26.2,48,25.1,47.2,24.7z M43.4,22c0,0,0.7,0,1.2,0c0.7,0,1.2,0.3,1.2,1.1c0,0.8-0.6,1.1-1.2,1.1c-0.5,0-1.2,0-1.2,0V22z
		 M45.3,28.2c-0.5,0-1.9,0-1.9,0v-2.1c0,0,1.4,0,1.9,0c0.7,0,1.2,0.3,1.2,1C46.5,27.9,46,28.2,45.3,28.2z"/>
</g>
<linearGradient id="SVGID_1_" gradientUnits="userSpaceOnUse" x1="22.35" y1="32.8" x2="22.35" y2="7">
	<stop  offset="0" style="stop-color:#009D55"/>
	<stop  offset="1" style="stop-color:#A2D70E"/>
</linearGradient>
<path class="st5" d="M34.5,15.5L34.5,15.5c-0.4-0.3-1.1-0.6-2.5-1c-0.4-0.1-0.9-0.2-1.5-0.3c-0.7-0.1-1.5-0.2-2.4-0.3H28
	c-0.2-0.5-0.4-0.9-0.6-1.4c-0.1-0.3-0.2-0.5-0.3-0.8v-0.1c-0.4-1-0.8-2-1.6-3c-0.8-1-1.9-1.6-3.1-1.6c-1.1,0-2.2,0.6-3.1,1.6
	c-0.7,0.9-1.2,2-1.6,3v0.1c-0.1,0.3-0.2,0.5-0.3,0.8c-0.2,0.5-0.4,0.9-0.6,1.4h-0.1c-0.9,0.1-1.7,0.2-2.4,0.3
	c-0.6,0.1-1,0.2-1.5,0.3c-1.4,0.3-2.1,0.7-2.5,1l0,0C10,15.6,10,15.8,10,16l0.1,0.9c0.2,1.4,0.4,3,0.7,4.6c0.3,1.2,0.6,2.5,1,3.7
	c0.2,0.5,0.4,1,0.6,1.4c1.4,2.9,4.1,5.1,7.4,5.9c0.8,0.2,1.7,0.3,2.5,0.3c0.9,0,1.7-0.1,2.5-0.3c3.3-0.8,6-3,7.5-6
	c0.2-0.4,0.3-0.7,0.5-1.1c1-2.7,1.4-5.7,1.7-8.1l0.2-1.4C34.7,15.8,34.7,15.6,34.5,15.5L34.5,15.5z M22.4,13.8c-1.2,0-2.2,0-3.1,0.1
	l0,0c0.1-0.1,0.1-0.2,0.2-0.4c0.1-0.3,0.2-0.6,0.4-0.8c0.3-0.6,0.5-1.2,0.8-1.8c0.1-0.3,0.3-0.5,0.5-0.7c0.2-0.3,0.7-0.8,1.3-0.8
	c0.6,0,1.1,0.5,1.3,0.8c0.2,0.2,0.3,0.5,0.5,0.7c0.3,0.5,0.6,1.2,0.8,1.8c0.1,0.3,0.2,0.6,0.4,0.8c0.1,0.1,0.1,0.2,0.2,0.4
	C24.6,13.8,23.5,13.8,22.4,13.8L22.4,13.8z"/>
</svg>
