<?xml version="1.0" encoding="UTF-8" standalone="no"?>
<!-- Generator: Adobe Illustrator 27.9.0, SVG Export Plug-In . SVG Version: 6.00 Build 0)  -->

<svg
   version="1.1"
   id="Badge"
   x="0px"
   y="0px"
   viewBox="0 0 135 40"
   style="enable-background:new 0 0 135 40;"
   xml:space="preserve"
   sodipodi:docname="FDroid.svg"
   inkscape:version="1.3 (0e150ed6c4, 2023-07-21)"
   xmlns:inkscape="http://www.inkscape.org/namespaces/inkscape"
   xmlns:sodipodi="http://sodipodi.sourceforge.net/DTD/sodipodi-0.dtd"
   xmlns="http://www.w3.org/2000/svg"
   xmlns:svg="http://www.w3.org/2000/svg"><defs
   id="defs25" /><sodipodi:namedview
   id="namedview25"
   pagecolor="#ffffff"
   bordercolor="#000000"
   borderopacity="0.25"
   inkscape:showpageshadow="2"
   inkscape:pageopacity="0.0"
   inkscape:pagecheckerboard="0"
   inkscape:deskcolor="#d1d1d1"
   inkscape:zoom="7.9851852"
   inkscape:cx="67.5"
   inkscape:cy="19.97449"
   inkscape:window-width="1920"
   inkscape:window-height="974"
   inkscape:window-x="-11"
   inkscape:window-y="-11"
   inkscape:window-maximized="1"
   inkscape:current-layer="Badge" />&#10;<style
   type="text/css"
   id="style1">&#10;	.st0{fill:#A6A6A6;}&#10;	.st1{fill:#FFFFFF;}&#10;	.st2{font-family:'ProductSans-Regular';}&#10;	.st3{font-size:8.38px;}&#10;	.st4{fill:none;stroke:#FFFFFF;stroke-width:0.2;stroke-miterlimit:10;}&#10;	.st5{font-family:'Roboto-Bold';}&#10;	.st6{font-size:15.7568px;}&#10;	&#10;		.st7{fill-rule:evenodd;clip-rule:evenodd;fill:#8AB000;stroke:#769616;stroke-width:1.43;stroke-linecap:round;stroke-miterlimit:10.53;}&#10;	.st8{fill-rule:evenodd;clip-rule:evenodd;fill:#FFFFFF;fill-opacity:0.3;}&#10;	.st9{fill-rule:evenodd;clip-rule:evenodd;fill:#263238;fill-opacity:0.2;}&#10;	.st10{fill-rule:evenodd;clip-rule:evenodd;fill:#8AB000;}&#10;	.st11{fill:#AEEA00;}&#10;	.st12{fill:#263238;fill-opacity:0.2;}&#10;	.st13{fill:#FFFFFF;fill-opacity:0.3;}&#10;	.st14{fill:#1976D2;}&#10;	.st15{fill:#FFFFFF;fill-opacity:0.2;}&#10;	.st16{fill:#0D47A1;}&#10;	.st17{fill:none;stroke:#0D47A1;stroke-width:1.09;stroke-linecap:round;stroke-miterlimit:10.53;}&#10;	.st18{fill-rule:evenodd;clip-rule:evenodd;fill:url(#SVGID_1_);}&#10;</style>&#10;<g
   id="g1">&#10;	<path
   d="M130,40H5c-2.8,0-5-2.2-5-5V5c0-2.8,2.2-5,5-5h125c2.8,0,5,2.2,5,5v30C135,37.8,132.8,40,130,40z"
   id="path1" />&#10;</g>&#10;<g
   id="g3">&#10;	<g
   id="g2">&#10;		<path
   class="st0"
   d="M130,0.8c2.3,0,4.2,1.9,4.2,4.2v30c0,2.3-1.9,4.2-4.2,4.2H5c-2.3,0-4.2-1.9-4.2-4.2V5c0-2.3,1.9-4.2,4.2-4.2    L130,0.8 M130,0H5C2.2,0,0,2.3,0,5v30c0,2.8,2.2,5,5,5h125c2.8,0,5-2.2,5-5V5C135,2.3,132.8,0,130,0L130,0z"
   id="path2" />&#10;	</g>&#10;</g>&#10;<text
   transform="matrix(1 0 0 1 41.0413 13.0001)"
   class="st1 st2 st3"
   id="text3">GET IT ON</text>&#10;<text
   transform="matrix(1 0 0 1 41.0413 13.0001)"
   class="st4 st2 st3"
   id="text4">GET IT ON</text>&#10;<text
   transform="matrix(1 0 0 1 40.1751 31.1343)"
   class="st1 st5 st6"
   id="text5">F-Droid</text>&#10;<g
   transform="matrix(1,0,0,0.99941424,69,90.776018)"
   id="g25">&#10;	<g
   id="g24">&#10;		<g
   id="Badge_00000118366951529531702810000004394845976592070821_"
   transform="translate(11.07,-10.51)">&#10;			<path
   class="st7"
   d="m -44.8,-72.4 -2.4,3.1"
   id="path5" />&#10;		</g>&#10;		<g
   id="Badge_00000091694523683981006280000000663020700890347402_"
   transform="translate(10.94,-10.68)">&#10;			<path
   class="st8"
   d="m -44.6,-72.9 c 0.3,0 0.4,0.1 0.6,0.3 -1.2,1.4 -1.4,1.6 -3,3.6 -0.6,0.8 -1.2,0.4 -0.6,-0.4 l 2.4,-3.2 c 0.1,-0.2 0.3,-0.3 0.6,-0.3 z"
   id="path6" />&#10;		</g>&#10;		<g
   id="Badge_00000168116891127035089560000005781852539575177111_"
   transform="translate(11.39,-10.38)">&#10;			<path
   class="st9"
   d="m -44.5,-72.9 c 0.2,0.3 0.2,0.6 0,0.9 l -2.4,3.2 c -0.6,0.8 -0.7,-0.4 -0.7,-0.4 0,0 2.1,-2.6 3.1,-3.7 z"
   id="path7" />&#10;		</g>&#10;		<g
   id="Badge_00000140004896801380036240000016071841404472946866_"
   transform="translate(11.05,-10.48)">&#10;			<path
   class="st10"
   d="m -44.6,-73 c 0.2,0 0.5,0.1 0.5,0.5 -0.1,0.3 -2.7,3.5 -2.7,3.5 -0.6,0.8 -1.4,0.4 -0.9,-0.4 l 2.4,-3.1 c 0.2,-0.2 0.4,-0.5 0.7,-0.5 z"
   id="path8" />&#10;		</g>&#10;		<g
   id="Badge_00000116924319078011319070000005696393935435328156_"
   transform="translate(-11.08,-10.51)">&#10;			<path
   class="st7"
   d="m -47.2,-72.4 2.4,3.1"
   id="path9" />&#10;		</g>&#10;		<g
   id="Badge_00000041282233262799159230000013355331123083544748_"
   transform="translate(-10.95,-10.68)">&#10;			<path
   class="st8"
   d="m -47.3,-72.9 c -0.3,0 -0.4,0.1 -0.6,0.3 1.2,1.4 1.4,1.6 2.9,3.6 0.6,0.8 1.2,0.4 0.6,-0.4 l -2.4,-3.2 c -0.1,-0.2 -0.3,-0.3 -0.5,-0.3 z"
   id="path10" />&#10;		</g>&#10;		<g
   id="Badge_00000109743038679660200900000010306248068077541551_"
   transform="translate(-11.39,-10.38)">&#10;			<path
   class="st9"
   d="m -47.4,-72.9 c -0.2,0.3 -0.2,0.6 0,0.9 l 2.4,3.2 c 0.6,0.8 0.7,-0.4 0.7,-0.4 0,0 -2.2,-2.6 -3.1,-3.7 z"
   id="path11" />&#10;		</g>&#10;		<g
   id="Badge_00000106830104953036486070000000026031444195034246_"
   transform="translate(-11.05,-10.48)">&#10;			<path
   class="st10"
   d="m -47.4,-73 c -0.2,0 -0.5,0.1 -0.5,0.5 0.1,0.3 2.7,3.5 2.7,3.5 0.6,0.8 1.4,0.4 0.8,-0.4 l -2.4,-3.1 c -0.1,-0.2 -0.3,-0.5 -0.6,-0.5 z"
   id="path12" />&#10;		</g>&#10;		<g
   id="Badge_00000062881739537858733040000009696525731130088846_"
   transform="translate(0,-6.37)">&#10;			<path
   class="st11"
   d="m -55.2,-74.5 h 18.4 c 1,0 1.7,0.8 1.7,1.7 v 4 c 0,1 -0.8,1.7 -1.7,1.7 h -18.4 c -1,0 -1.7,-0.8 -1.7,-1.7 v -4 c 0,-0.9 0.8,-1.7 1.7,-1.7 z"
   id="path13" />&#10;		</g>&#10;		<g
   id="Badge_00000097494643504179266080000014381528834054237115_"
   transform="translate(0,-5.54)">&#10;			<path
   class="st12"
   d="m -55.2,-73.7 h 18.4 c 1,0 1.7,0.8 1.7,1.7 v 2.3 c 0,0.9 -0.8,1.7 -1.7,1.7 h -18.4 c -1,0 -1.7,-0.8 -1.7,-1.7 V -72 c 0,-0.9 0.8,-1.7 1.7,-1.7 z"
   id="path14" />&#10;		</g>&#10;		<g
   id="Badge_00000084518542251844141880000017300566407763338884_"
   transform="translate(0,-7.21)">&#10;			<path
   class="st13"
   d="m -55.2,-73.7 h 18.4 c 1,0 1.7,0.8 1.7,1.7 v 2.3 c 0,0.9 -0.8,1.7 -1.7,1.7 h -18.4 c -1,0 -1.7,-0.8 -1.7,-1.7 V -72 c 0,-0.9 0.8,-1.7 1.7,-1.7 z"
   id="path15" />&#10;		</g>&#10;		<g
   id="Badge_00000044180122524341340530000010601366364042730883_"
   transform="translate(0,-6.37)">&#10;			<path
   class="st11"
   d="m -55.2,-73.8 h 18.4 c 1,0 1.7,0.6 1.7,1.4 v 3.3 c 0,0.8 -0.8,1.4 -1.7,1.4 h -18.4 c -1,0 -1.7,-0.6 -1.7,-1.4 v -3.3 c 0,-0.8 0.8,-1.4 1.7,-1.4 z"
   id="path16" />&#10;		</g>&#10;		<g
   id="Badge_00000136403094036758911650000006238521866139254150_"
   transform="translate(0,5.39)">&#10;			<path
   class="st14"
   d="m -55.2,-78.2 h 18.4 c 1,0 1.7,0.8 1.7,1.7 v 11.4 c 0,0.9 -0.8,1.7 -1.7,1.7 h -18.4 c -1,0 -1.7,-0.8 -1.7,-1.7 v -11.4 c 0,-0.9 0.8,-1.7 1.7,-1.7 z"
   id="path17" />&#10;		</g>&#10;		<g
   id="Badge_00000040555124004001608400000010303824700296718745_"
   transform="translate(0,9.07)">&#10;			<path
   class="st12"
   d="m -55.2,-74.5 h 18.4 c 1,0 1.7,0.8 1.7,1.7 v 4 c 0,1 -0.8,1.7 -1.7,1.7 h -18.4 c -1,0 -1.7,-0.8 -1.7,-1.7 v -4 c 0,-0.9 0.8,-1.7 1.7,-1.7 z"
   id="path18" />&#10;		</g>&#10;		<g
   id="Badge_00000067196625724060099540000017179694478709191584_"
   transform="translate(0,1.66)">&#10;			<path
   class="st15"
   d="m -55.2,-74.5 h 18.4 c 1,0 1.7,0.8 1.7,1.7 v 4 c 0,1 -0.8,1.7 -1.7,1.7 h -18.4 c -1,0 -1.7,-0.8 -1.7,-1.7 v -4 c 0,-0.9 0.8,-1.7 1.7,-1.7 z"
   id="path19" />&#10;		</g>&#10;		<g
   id="Badge_00000062187623401410887690000004760922930063643062_"
   transform="translate(0,5.4)">&#10;			<path
   class="st14"
   d="m -55.2,-77.6 h 18.4 c 1,0 1.7,0.7 1.7,1.6 v 10.4 c 0,0.9 -0.8,1.6 -1.7,1.6 h -18.4 c -1,0 -1.7,-0.7 -1.7,-1.6 V -76 c 0,-0.9 0.8,-1.6 1.7,-1.6 z"
   id="path20" />&#10;		</g>&#10;		<g
   id="Badge_00000023253568304773752780000014452717300321815700_"
   transform="translate(0.05,5.41)">&#10;			<path
   class="st16"
   d="m -46,-74.4 c -1.6,0 -3,1.1 -3.5,2.7 h 1.8 c 0.3,-0.6 1,-1 1.6,-1 1,0 1.9,0.8 1.9,1.8 0,0 0,0 0,0 0,1 -0.8,1.9 -1.8,1.9 0,0 0,0 0,0 -0.7,0 -1.4,-0.4 -1.7,-1.1 h -1.8 c 0.4,1.6 1.8,2.8 3.5,2.8 2,0 3.6,-1.6 3.6,-3.6 0,-2 -1.7,-3.5 -3.6,-3.5 z"
   id="path21" />&#10;		</g>&#10;		<g
   id="Badge_00000180332039990788483950000007645299203787692975_"
   transform="translate(0,5.41)">&#10;			<circle
   class="st17"
   cx="-46"
   cy="-70.800003"
   id="ellipse21"
   r="5.5" />&#10;		</g>&#10;		<g
   id="Badge_00000091003358210021433530000003847531530708896684_"
   transform="translate(-5.53,-6.27)">&#10;			<ellipse
   class="st12"
   cx="-46"
   cy="-70.800003"
   rx="1.9"
   ry="2.2"
   id="ellipse22" />&#10;		</g>&#10;		<g
   id="Badge_00000109720579028120851230000000362991697278116762_"
   transform="translate(-5.53,-5.99)">&#10;			<circle
   class="st1"
   cx="-46"
   cy="-70.800003"
   r="1.9"
   id="circle22" />&#10;		</g>&#10;		<g
   id="Badge_00000080908686989418154760000016000664193228026798_"
   transform="translate(5.67,-6.27)">&#10;			<ellipse
   class="st12"
   cx="-46"
   cy="-70.800003"
   rx="1.9"
   ry="2.2"
   id="ellipse23" />&#10;		</g>&#10;		<g
   id="Badge_00000079454113680426674040000004873174406374836110_"
   transform="translate(5.67,-5.99)">&#10;			<circle
   class="st1"
   cx="-46"
   cy="-70.800003"
   r="1.9"
   id="circle23" />&#10;		</g>&#10;		<g
   id="Badge_00000005263906305899386480000002180477582148814251_"
   transform="translate(0,-0.01)">&#10;			&#10;				<radialGradient
   id="SVGID_1_"
   cx="-114.8785"
   cy="21.909901"
   r="25.639999"
   gradientTransform="matrix(1,0,0,-1,56,-61.54)"
   gradientUnits="userSpaceOnUse">&#10;				<stop
   offset="0"
   style="stop-color:#FFFFFF;stop-opacity:0.1"
   id="stop23" />&#10;				<stop
   offset="1"
   style="stop-color:#FFFFFF;stop-opacity:0"
   id="stop24" />&#10;			</radialGradient>&#10;			<path
   class="st18"
   d="m -58.3,-83.6 c -0.4,0 -0.7,0.3 -0.7,0.7 0,0.2 0,0.3 0.2,0.5 l 2.1,2.7 c -0.1,0.2 -0.1,0.4 -0.1,0.6 v 4 c 0,0.9 0.8,1.7 1.7,1.7 v 0 h 18.4 c 1,0 1.7,-0.8 1.7,-1.7 v 0 -4 c 0,-0.2 0,-0.4 -0.1,-0.6 l 2.1,-2.7 c 0.2,-0.3 0.2,-0.8 -0.1,-1 -0.1,-0.1 -0.3,-0.2 -0.4,-0.2 -0.2,0 -0.5,0.1 -0.6,0.3 l -2,2.5 c -0.2,-0.1 -0.4,-0.1 -0.6,-0.1 h -18.4 c -0.2,0 -0.4,0 -0.6,0.1 l -2,-2.5 c -0.1,-0.2 -0.3,-0.3 -0.6,-0.3 z m 3.1,10.8 c -1,0 -1.7,0.8 -1.7,1.7 v 0 11.4 c 0,1 0.8,1.7 1.7,1.7 v 0 h 18.4 c 1,0 1.7,-0.8 1.7,-1.7 v 0 -11.4 c 0,-0.9 -0.8,-1.7 -1.7,-1.7 v 0 z"
   id="path24"
   style="fill:url(#SVGID_1_)" />&#10;		</g>&#10;	</g>&#10;</g>&#10;</svg>
