<?xml version="1.0" encoding="utf-8"?>
<!-- Generator: Adobe Illustrator 27.9.0, SVG Export Plug-In . SVG Version: 6.00 Build 0)  -->
<svg version="1.1" id="Badge" xmlns="http://www.w3.org/2000/svg" xmlns:xlink="http://www.w3.org/1999/xlink" x="0px" y="0px"
	 viewBox="0 0 135 40" style="enable-background:new 0 0 135 40;" xml:space="preserve">
<style type="text/css">
	.st0{fill:#A6A6A6;}
	.st1{fill:#FFFFFF;}
	.st2{font-family:'ProductSans-Regular';}
	.st3{font-size:8.38px;}
	.st4{fill:none;stroke:#FFFFFF;stroke-width:0.2;stroke-miterlimit:10;}
	.st5{font-family:'Roboto-Bold';}
	.st6{font-size:15.7568px;}
	
		.st7{fill-rule:evenodd;clip-rule:evenodd;fill:#8AB000;stroke:#769616;stroke-width:1.43;stroke-linecap:round;stroke-miterlimit:10.53;}
	.st8{fill-rule:evenodd;clip-rule:evenodd;fill:#FFFFFF;fill-opacity:0.3;}
	.st9{fill-rule:evenodd;clip-rule:evenodd;fill:#263238;fill-opacity:0.2;}
	.st10{fill-rule:evenodd;clip-rule:evenodd;fill:#8AB000;}
	.st11{fill:#AEEA00;}
	.st12{fill:#263238;fill-opacity:0.2;}
	.st13{fill:#FFFFFF;fill-opacity:0.3;}
	.st14{fill:#1976D2;}
	.st15{fill:#FFFFFF;fill-opacity:0.2;}
	.st16{fill:#0D47A1;}
	.st17{fill:none;stroke:#0D47A1;stroke-width:1.09;stroke-linecap:round;stroke-miterlimit:10.53;}
	.st18{fill-rule:evenodd;clip-rule:evenodd;fill:url(#SVGID_1_);}
</style>
<g>
	<path d="M130,40H5c-2.8,0-5-2.2-5-5V5c0-2.8,2.2-5,5-5h125c2.8,0,5,2.2,5,5v30C135,37.8,132.8,40,130,40z"/>
</g>
<g>
	<g>
		<path class="st0" d="M130,0.8c2.3,0,4.2,1.9,4.2,4.2v30c0,2.3-1.9,4.2-4.2,4.2H5c-2.3,0-4.2-1.9-4.2-4.2V5c0-2.3,1.9-4.2,4.2-4.2
			L130,0.8 M130,0H5C2.2,0,0,2.3,0,5v30c0,2.8,2.2,5,5,5h125c2.8,0,5-2.2,5-5V5C135,2.3,132.8,0,130,0L130,0z"/>
	</g>
</g>
<text transform="matrix(1 0 0 1 41.0413 13.0001)" class="st1 st2 st3">GET IT ON</text>
<text transform="matrix(1 0 0 1 41.0413 13.0001)" class="st4 st2 st3">GET IT ON</text>
<text transform="matrix(1 0 0 1 40.1751 31.1343)" class="st1 st5 st6">F-Droid</text>
<g transform="matrix(1 0 0 1 69.02 90.8)">
	<g>
		<g id="Badge_00000118366951529531702810000004394845976592070821_" transform="matrix(1 0 0 1 11.07 -10.51)">
			<path class="st7" d="M-44.8-72.4l-2.4,3.1"/>
		</g>
		<g id="Badge_00000091694523683981006280000000663020700890347402_" transform="matrix(1 0 0 1 10.94 -10.68)">
			<path class="st8" d="M-44.6-72.9c0.3,0,0.4,0.1,0.6,0.3c-1.2,1.4-1.4,1.6-3,3.6c-0.6,0.8-1.2,0.4-0.6-0.4l2.4-3.2
				C-45.1-72.8-44.9-72.9-44.6-72.9L-44.6-72.9L-44.6-72.9z"/>
		</g>
		<g id="Badge_00000168116891127035089560000005781852539575177111_" transform="matrix(1 0 0 1 11.39 -10.38)">
			<path class="st9" d="M-44.5-72.9c0.2,0.3,0.2,0.6,0,0.9l-2.4,3.2c-0.6,0.8-0.7-0.4-0.7-0.4S-45.5-71.8-44.5-72.9
				C-44.5-72.9-44.5-72.9-44.5-72.9z"/>
		</g>
		<g id="Badge_00000140004896801380036240000016071841404472946866_" transform="matrix(1 0 0 1 11.05 -10.48)">
			<path class="st10" d="M-44.6-73c0.2,0,0.5,0.1,0.5,0.5c-0.1,0.3-2.7,3.5-2.7,3.5c-0.6,0.8-1.4,0.4-0.9-0.4l2.4-3.1
				C-45.1-72.7-44.9-73-44.6-73L-44.6-73L-44.6-73z"/>
		</g>
		<g id="Badge_00000116924319078011319070000005696393935435328156_" transform="matrix(1 0 0 1 -11.08 -10.51)">
			<path class="st7" d="M-47.2-72.4l2.4,3.1"/>
		</g>
		<g id="Badge_00000041282233262799159230000013355331123083544748_" transform="matrix(1 0 0 1 -10.95 -10.68)">
			<path class="st8" d="M-47.3-72.9c-0.3,0-0.4,0.1-0.6,0.3c1.2,1.4,1.4,1.6,2.9,3.6c0.6,0.8,1.2,0.4,0.6-0.4l-2.4-3.2
				C-46.9-72.8-47.1-72.9-47.3-72.9L-47.3-72.9z"/>
		</g>
		<g id="Badge_00000109743038679660200900000010306248068077541551_" transform="matrix(1 0 0 1 -11.39 -10.38)">
			<path class="st9" d="M-47.4-72.9c-0.2,0.3-0.2,0.6,0,0.9l2.4,3.2c0.6,0.8,0.7-0.4,0.7-0.4S-46.5-71.8-47.4-72.9L-47.4-72.9z"/>
		</g>
		<g id="Badge_00000106830104953036486070000000026031444195034246_" transform="matrix(1 0 0 1 -11.05 -10.48)">
			<path class="st10" d="M-47.4-73c-0.2,0-0.5,0.1-0.5,0.5c0.1,0.3,2.7,3.5,2.7,3.5c0.6,0.8,1.4,0.4,0.8-0.4l-2.4-3.1
				C-46.9-72.7-47.1-73-47.4-73C-47.4-73-47.4-73-47.4-73z"/>
		</g>
		<g id="Badge_00000062881739537858733040000009696525731130088846_" transform="matrix(1 0 0 1 0 -6.37)">
			<path class="st11" d="M-55.2-74.5h18.4c1,0,1.7,0.8,1.7,1.7v4c0,1-0.8,1.7-1.7,1.7h-18.4c-1,0-1.7-0.8-1.7-1.7v-4
				C-56.9-73.7-56.1-74.5-55.2-74.5z"/>
		</g>
		<g id="Badge_00000097494643504179266080000014381528834054237115_" transform="matrix(1 0 0 1 0 -5.54)">
			<path class="st12" d="M-55.2-73.7h18.4c1,0,1.7,0.8,1.7,1.7v2.3c0,0.9-0.8,1.7-1.7,1.7h-18.4c-1,0-1.7-0.8-1.7-1.7v-2.3
				C-56.9-72.9-56.1-73.7-55.2-73.7z"/>
		</g>
		<g id="Badge_00000084518542251844141880000017300566407763338884_" transform="matrix(1 0 0 1 0 -7.21)">
			<path class="st13" d="M-55.2-73.7h18.4c1,0,1.7,0.8,1.7,1.7v2.3c0,0.9-0.8,1.7-1.7,1.7h-18.4c-1,0-1.7-0.8-1.7-1.7v-2.3
				C-56.9-72.9-56.1-73.7-55.2-73.7z"/>
		</g>
		<g id="Badge_00000044180122524341340530000010601366364042730883_" transform="matrix(1 0 0 1 0 -6.37)">
			<path class="st11" d="M-55.2-73.8h18.4c1,0,1.7,0.6,1.7,1.4v3.3c0,0.8-0.8,1.4-1.7,1.4h-18.4c-1,0-1.7-0.6-1.7-1.4v-3.3
				C-56.9-73.2-56.1-73.8-55.2-73.8z"/>
		</g>
		<g id="Badge_00000136403094036758911650000006238521866139254150_" transform="matrix(1 0 0 1 0 5.39)">
			<path class="st14" d="M-55.2-78.2h18.4c1,0,1.7,0.8,1.7,1.7v11.4c0,0.9-0.8,1.7-1.7,1.7h-18.4c-1,0-1.7-0.8-1.7-1.7v-11.4
				C-56.9-77.4-56.1-78.2-55.2-78.2z"/>
		</g>
		<g id="Badge_00000040555124004001608400000010303824700296718745_" transform="matrix(1 0 0 1 0 9.07)">
			<path class="st12" d="M-55.2-74.5h18.4c1,0,1.7,0.8,1.7,1.7v4c0,1-0.8,1.7-1.7,1.7h-18.4c-1,0-1.7-0.8-1.7-1.7v-4
				C-56.9-73.7-56.1-74.5-55.2-74.5z"/>
		</g>
		<g id="Badge_00000067196625724060099540000017179694478709191584_" transform="matrix(1 0 0 1 0 1.66)">
			<path class="st15" d="M-55.2-74.5h18.4c1,0,1.7,0.8,1.7,1.7v4c0,1-0.8,1.7-1.7,1.7h-18.4c-1,0-1.7-0.8-1.7-1.7v-4
				C-56.9-73.7-56.1-74.5-55.2-74.5z"/>
		</g>
		<g id="Badge_00000062187623401410887690000004760922930063643062_" transform="matrix(1 0 0 1 0 5.4)">
			<path class="st14" d="M-55.2-77.6h18.4c1,0,1.7,0.7,1.7,1.6v10.4c0,0.9-0.8,1.6-1.7,1.6h-18.4c-1,0-1.7-0.7-1.7-1.6V-76
				C-56.9-76.9-56.1-77.6-55.2-77.6z"/>
		</g>
		<g id="Badge_00000023253568304773752780000014452717300321815700_" transform="matrix(1 0 0 1 0.05 5.41)">
			<path class="st16" d="M-46-74.4c-1.6,0-3,1.1-3.5,2.7h1.8c0.3-0.6,1-1,1.6-1c1,0,1.9,0.8,1.9,1.8c0,0,0,0,0,0
				c0,1-0.8,1.9-1.8,1.9c0,0,0,0,0,0c-0.7,0-1.4-0.4-1.7-1.1h-1.8c0.4,1.6,1.8,2.8,3.5,2.8c2,0,3.6-1.6,3.6-3.6S-44.1-74.4-46-74.4
				L-46-74.4z"/>
		</g>
		<g id="Badge_00000180332039990788483950000007645299203787692975_" transform="matrix(1 0 0 1 0 5.41)">
			<ellipse class="st17" cx="-46" cy="-70.8" rx="5.5" ry="5.5"/>
		</g>
		<g id="Badge_00000091003358210021433530000003847531530708896684_" transform="matrix(1 0 0 1 -5.53 -6.27)">
			<ellipse class="st12" cx="-46" cy="-70.8" rx="1.9" ry="2.2"/>
		</g>
		<g id="Badge_00000109720579028120851230000000362991697278116762_" transform="matrix(1 0 0 1 -5.53 -5.99)">
			<circle class="st1" cx="-46" cy="-70.8" r="1.9"/>
		</g>
		<g id="Badge_00000080908686989418154760000016000664193228026798_" transform="matrix(1 0 0 1 5.67 -6.27)">
			<ellipse class="st12" cx="-46" cy="-70.8" rx="1.9" ry="2.2"/>
		</g>
		<g id="Badge_00000079454113680426674040000004873174406374836110_" transform="matrix(1 0 0 1 5.67 -5.99)">
			<circle class="st1" cx="-46" cy="-70.8" r="1.9"/>
		</g>
		<g id="Badge_00000005263906305899386480000002180477582148814251_" transform="matrix(1 0 0 1 0 -0.01)">
			
				<radialGradient id="SVGID_1_" cx="-114.8785" cy="21.9099" r="25.64" gradientTransform="matrix(1 0 0 -1 56 -61.54)" gradientUnits="userSpaceOnUse">
				<stop  offset="0" style="stop-color:#FFFFFF;stop-opacity:0.1"/>
				<stop  offset="1" style="stop-color:#FFFFFF;stop-opacity:0"/>
			</radialGradient>
			<path class="st18" d="M-58.3-83.6c-0.4,0-0.7,0.3-0.7,0.7c0,0.2,0,0.3,0.2,0.5l2.1,2.7c-0.1,0.2-0.1,0.4-0.1,0.6v4
				c0,0.9,0.8,1.7,1.7,1.7l0,0h18.4c1,0,1.7-0.8,1.7-1.7l0,0v-4c0-0.2,0-0.4-0.1-0.6l2.1-2.7c0.2-0.3,0.2-0.8-0.1-1
				c-0.1-0.1-0.3-0.2-0.4-0.2c-0.2,0-0.5,0.1-0.6,0.3l-2,2.5c-0.2-0.1-0.4-0.1-0.6-0.1h-18.4c-0.2,0-0.4,0-0.6,0.1l-2-2.5
				C-57.8-83.5-58-83.6-58.3-83.6L-58.3-83.6z M-55.2-72.8c-1,0-1.7,0.8-1.7,1.7l0,0v11.4c0,1,0.8,1.7,1.7,1.7l0,0h18.4
				c1,0,1.7-0.8,1.7-1.7l0,0v-11.4c0-0.9-0.8-1.7-1.7-1.7l0,0C-36.8-72.8-55.2-72.8-55.2-72.8z"/>
		</g>
	</g>
</g>
</svg>
