<?xml version="1.0" encoding="UTF-8" standalone="no"?>
<!-- Generator: Adobe Illustrator 27.9.0, SVG Export Plug-In . SVG Version: 6.00 Build 0)  -->

<svg
   version="1.1"
   id="Badge"
   x="0px"
   y="0px"
   viewBox="0 0 135 40"
   style="enable-background:new 0 0 135 40;"
   xml:space="preserve"
   sodipodi:docname="GitHub.svg"
   inkscape:version="1.3 (0e150ed6c4, 2023-07-21)"
   xmlns:inkscape="http://www.inkscape.org/namespaces/inkscape"
   xmlns:sodipodi="http://sodipodi.sourceforge.net/DTD/sodipodi-0.dtd"
   xmlns="http://www.w3.org/2000/svg"
   xmlns:svg="http://www.w3.org/2000/svg"><defs
   id="defs11" /><sodipodi:namedview
   id="namedview11"
   pagecolor="#ffffff"
   bordercolor="#000000"
   borderopacity="0.25"
   inkscape:showpageshadow="2"
   inkscape:pageopacity="0.0"
   inkscape:pagecheckerboard="0"
   inkscape:deskcolor="#d1d1d1"
   inkscape:zoom="7.9851852"
   inkscape:cx="67.5"
   inkscape:cy="19.97449"
   inkscape:window-width="1920"
   inkscape:window-height="974"
   inkscape:window-x="-11"
   inkscape:window-y="-11"
   inkscape:window-maximized="1"
   inkscape:current-layer="Badge" />&#10;<style
   type="text/css"
   id="style1">&#10;	.st0{fill:#A6A6A6;}&#10;	.st1{fill:#FFFFFF;}&#10;	.st2{font-family:'ProductSans-Regular';}&#10;	.st3{font-size:8.38px;}&#10;	.st4{fill:none;stroke:#FFFFFF;stroke-width:0.2;stroke-miterlimit:10;}&#10;	.st5{fill-rule:evenodd;clip-rule:evenodd;fill:#FFFFFF;}&#10;</style>&#10;<g
   id="g1">&#10;	<path
   d="M130,40H5c-2.8,0-5-2.2-5-5V5c0-2.8,2.2-5,5-5h125c2.8,0,5,2.2,5,5v30C135,37.8,132.8,40,130,40z"
   id="path1" />&#10;</g>&#10;<g
   id="g3">&#10;	<g
   id="g2">&#10;		<path
   class="st0"
   d="M130,0.8c2.3,0,4.2,1.9,4.2,4.2v30c0,2.3-1.9,4.2-4.2,4.2H5c-2.3,0-4.2-1.9-4.2-4.2V5c0-2.3,1.9-4.2,4.2-4.2    L130,0.8 M130,0H5C2.2,0,0,2.3,0,5v30c0,2.8,2.2,5,5,5h125c2.8,0,5-2.2,5-5V5C135,2.3,132.8,0,130,0L130,0z"
   id="path2" />&#10;	</g>&#10;</g>&#10;<text
   transform="matrix(1 0 0 1 41.0413 13.0001)"
   class="st1 st2 st3"
   id="text3">GET IT ON</text>&#10;<text
   transform="matrix(1 0 0 1 41.0413 13.0001)"
   class="st4 st2 st3"
   id="text4">GET IT ON</text>&#10;<g
   id="g10">&#10;	<path
   class="st1"
   d="M51.2,24.4h-4.4c-0.1,0-0.2,0.1-0.2,0.2v2.1c0,0.1,0.1,0.2,0.2,0.2h1.7v2.7c0,0-0.4,0.1-1.4,0.1   c-1.3,0-3-0.5-3-4.3c0-3.9,1.8-4.4,3.5-4.4c1.5,0,2.1,0.3,2.5,0.4c0.1,0,0.2-0.1,0.2-0.2l0.5-2.1c0-0.1,0-0.1-0.1-0.2   c-0.2-0.1-1.2-0.7-3.7-0.7c-2.9,0-5.9,1.2-5.9,7.3c0,6,3.4,6.9,6.4,6.9c2.4,0,3.9-1,3.9-1c0.1,0,0.1-0.1,0.1-0.2v-6.7   C51.4,24.5,51.3,24.4,51.2,24.4z"
   id="path4" />&#10;	<path
   class="st1"
   d="M73.8,19c0-0.1-0.1-0.2-0.2-0.2h-2.5C71,18.8,71,18.9,71,19c0,0,0,4.8,0,4.8h-3.9V19c0-0.1-0.1-0.2-0.2-0.2   h-2.5c-0.1,0-0.2,0.1-0.2,0.2v13c0,0.1,0.1,0.2,0.2,0.2h2.5c0.1,0,0.2-0.1,0.2-0.2v-5.5H71c0,0,0,5.5,0,5.5c0,0.1,0.1,0.2,0.2,0.2   h2.5c0.1,0,0.2-0.1,0.2-0.2V19z"
   id="path5" />&#10;	<g
   id="g8">&#10;		<g
   id="g7">&#10;			<path
   class="st1"
   d="M55.8,20.7c0-0.9-0.7-1.6-1.6-1.6c-0.9,0-1.6,0.7-1.6,1.6c0,0.9,0.7,1.6,1.6,1.6     C55.1,22.3,55.8,21.6,55.8,20.7z"
   id="path6" />&#10;			<path
   class="st1"
   d="M55.7,29.3c0-0.3,0-6,0-6c0-0.1-0.1-0.2-0.2-0.2H53c-0.1,0-0.2,0.1-0.2,0.2c0,0,0,7.2,0,8.6     c0,0.3,0.2,0.3,0.4,0.3c0,0,1.1,0,2.2,0c0.2,0,0.3-0.1,0.3-0.3C55.7,31.4,55.7,29.6,55.7,29.3z"
   id="path7" />&#10;		</g>&#10;	</g>&#10;	<path
   class="st1"
   d="M83.2,23.1h-2.5c-0.1,0-0.2,0.1-0.2,0.2v6.4c0,0-0.6,0.5-1.5,0.5c-0.9,0-1.1-0.4-1.1-1.3c0-0.9,0-5.5,0-5.5   c0-0.1-0.1-0.2-0.2-0.2h-2.5c-0.1,0-0.2,0.1-0.2,0.2c0,0,0,3.4,0,6c0,2.6,1.4,3.2,3.4,3.2c1.6,0,2.9-0.9,2.9-0.9s0.1,0.5,0.1,0.5   c0,0.1,0.1,0.1,0.2,0.1l1.6,0c0.1,0,0.2-0.1,0.2-0.2l0-8.7C83.5,23.2,83.4,23.1,83.2,23.1z"
   id="path8" />&#10;	<path
   class="st1"
   d="M90,22.8c-1.4,0-2.3,0.6-2.3,0.6V19c0-0.1-0.1-0.2-0.2-0.2h-2.5c-0.1,0-0.2,0.1-0.2,0.2v13   c0,0.1,0.1,0.2,0.2,0.2c0,0,1.7,0,1.7,0c0.1,0,0.1,0,0.2-0.1c0-0.1,0.1-0.6,0.1-0.6s1,1,2.9,1c2.3,0,3.6-1.1,3.6-5.1   C93.4,23.3,91.4,22.8,90,22.8z M89,30.1c-0.9,0-1.4-0.4-1.4-0.4v-4.1c0,0,0.6-0.3,1.3-0.4c0.9-0.1,1.7,0.2,1.7,2.3   C90.6,29.7,90.2,30.1,89,30.1z"
   id="path9" />&#10;	<path
   class="st1"
   d="M62.8,23.1h-1.9c0,0,0-2.5,0-2.5c0-0.1,0-0.1-0.2-0.1h-2.5c-0.1,0-0.2,0-0.2,0.1v2.5c0,0-1.3,0.3-1.4,0.3   c-0.1,0-0.1,0.1-0.1,0.2v1.6c0,0.1,0.1,0.2,0.2,0.2h1.3c0,0,0,1.7,0,3.8c0,2.8,2,3.1,3.3,3.1c0.6,0,1.4-0.2,1.5-0.2   c0.1,0,0.1-0.1,0.1-0.2l0-1.8c0-0.1-0.1-0.2-0.2-0.2c-0.1,0-0.4,0-0.7,0c-0.9,0-1.2-0.4-1.2-1c0-0.5,0-3.6,0-3.6h1.9   c0.1,0,0.2-0.1,0.2-0.2v-2C63,23.2,62.9,23.1,62.8,23.1z"
   id="path10" />&#10;</g>&#10;<path
   class="st5"
   d="M 22.992052,7.1999998 C 15.796454,7.1999998 10,13.096393 10,20.291991 c 0,5.796453 3.697738,10.693458 8.894558,12.492357 0.599634,0.09994 0.89945,-0.299817 0.89945,-0.599633 0,-0.299817 0,-1.299205 0,-2.398533 -3.597799,0.799511 -4.39731,-1.599022 -4.39731,-1.599022 -0.599633,-1.499082 -1.399144,-1.898838 -1.399144,-1.898838 -1.199266,-0.799511 0.09994,-0.799511 0.09994,-0.799511 1.299205,0.09994 1.998777,1.299205 1.998777,1.299205 1.199267,1.998778 2.998166,1.399144 3.797677,1.099328 0.09994,-0.799511 0.499694,-1.399144 0.799511,-1.7989 -2.898227,-0.299816 -5.896393,-1.399144 -5.896393,-6.496025 0,-1.399144 0.499695,-2.598411 1.299205,-3.497861 -0.09994,-0.299816 -0.599633,-1.69896 0.09994,-3.49786 0,0 1.099328,-0.299816 3.597799,1.299206 1.099328,-0.299817 2.198655,-0.399756 3.297983,-0.399756 1.099327,0 2.198654,0.199878 3.297982,0.399756 2.498471,-1.698961 3.597799,-1.299206 3.597799,-1.299206 0.699572,1.7989 0.299816,3.198044 0.09994,3.49786 0.799511,0.89945 1.299205,2.098717 1.299205,3.497861 0,4.996943 -2.998166,6.09627 -5.996332,6.496025 0.499695,0.399756 0.89945,1.199267 0.89945,2.398533 0,1.7989 0,3.198044 0,3.597799 0,0.299817 0.199878,0.799511 0.89945,0.599633 5.096882,-1.69896 8.794619,-6.595965 8.794619,-12.392418 C 36.084042,13.096393 30.18765,7.1999998 22.992052,7.1999998 Z"
   id="path11"
   style="stroke-width:0.999389" />&#10;</svg>
