<?xml version="1.0" encoding="utf-8"?>
<!-- Generator: Adobe Illustrator 27.9.0, SVG Export Plug-In . SVG Version: 6.00 Build 0)  -->
<svg version="1.1" id="Badge" xmlns="http://www.w3.org/2000/svg" xmlns:xlink="http://www.w3.org/1999/xlink" x="0px" y="0px"
	 viewBox="0 0 135 40" style="enable-background:new 0 0 135 40;" xml:space="preserve">
<style type="text/css">
	.st0{fill:#A6A6A6;}
	.st1{fill:#FFFFFF;}
	.st2{font-family:'ProductSans-Regular';}
	.st3{font-size:8.38px;}
	.st4{fill:none;stroke:#FFFFFF;stroke-width:0.2;stroke-miterlimit:10;}
	.st5{fill-rule:evenodd;clip-rule:evenodd;fill:#FFFFFF;}
</style>
<g>
	<path d="M130,40H5c-2.8,0-5-2.2-5-5V5c0-2.8,2.2-5,5-5h125c2.8,0,5,2.2,5,5v30C135,37.8,132.8,40,130,40z"/>
</g>
<g>
	<g>
		<path class="st0" d="M130,0.8c2.3,0,4.2,1.9,4.2,4.2v30c0,2.3-1.9,4.2-4.2,4.2H5c-2.3,0-4.2-1.9-4.2-4.2V5c0-2.3,1.9-4.2,4.2-4.2
			L130,0.8 M130,0H5C2.2,0,0,2.3,0,5v30c0,2.8,2.2,5,5,5h125c2.8,0,5-2.2,5-5V5C135,2.3,132.8,0,130,0L130,0z"/>
	</g>
</g>
<text transform="matrix(1 0 0 1 41.0413 13.0001)" class="st1 st2 st3">GET IT ON</text>
<text transform="matrix(1 0 0 1 41.0413 13.0001)" class="st4 st2 st3">GET IT ON</text>
<g>
	<path class="st1" d="M51.2,24.4h-4.4c-0.1,0-0.2,0.1-0.2,0.2v2.1c0,0.1,0.1,0.2,0.2,0.2h1.7v2.7c0,0-0.4,0.1-1.4,0.1
		c-1.3,0-3-0.5-3-4.3c0-3.9,1.8-4.4,3.5-4.4c1.5,0,2.1,0.3,2.5,0.4c0.1,0,0.2-0.1,0.2-0.2l0.5-2.1c0-0.1,0-0.1-0.1-0.2
		c-0.2-0.1-1.2-0.7-3.7-0.7c-2.9,0-5.9,1.2-5.9,7.3c0,6,3.4,6.9,6.4,6.9c2.4,0,3.9-1,3.9-1c0.1,0,0.1-0.1,0.1-0.2v-6.7
		C51.4,24.5,51.3,24.4,51.2,24.4z"/>
	<path class="st1" d="M73.8,19c0-0.1-0.1-0.2-0.2-0.2h-2.5C71,18.8,71,18.9,71,19c0,0,0,4.8,0,4.8h-3.9V19c0-0.1-0.1-0.2-0.2-0.2
		h-2.5c-0.1,0-0.2,0.1-0.2,0.2v13c0,0.1,0.1,0.2,0.2,0.2h2.5c0.1,0,0.2-0.1,0.2-0.2v-5.5H71c0,0,0,5.5,0,5.5c0,0.1,0.1,0.2,0.2,0.2
		h2.5c0.1,0,0.2-0.1,0.2-0.2V19z"/>
	<g>
		<g>
			<path class="st1" d="M55.8,20.7c0-0.9-0.7-1.6-1.6-1.6c-0.9,0-1.6,0.7-1.6,1.6c0,0.9,0.7,1.6,1.6,1.6
				C55.1,22.3,55.8,21.6,55.8,20.7z"/>
			<path class="st1" d="M55.7,29.3c0-0.3,0-6,0-6c0-0.1-0.1-0.2-0.2-0.2H53c-0.1,0-0.2,0.1-0.2,0.2c0,0,0,7.2,0,8.6
				c0,0.3,0.2,0.3,0.4,0.3c0,0,1.1,0,2.2,0c0.2,0,0.3-0.1,0.3-0.3C55.7,31.4,55.7,29.6,55.7,29.3z"/>
		</g>
	</g>
	<path class="st1" d="M83.2,23.1h-2.5c-0.1,0-0.2,0.1-0.2,0.2v6.4c0,0-0.6,0.5-1.5,0.5c-0.9,0-1.1-0.4-1.1-1.3c0-0.9,0-5.5,0-5.5
		c0-0.1-0.1-0.2-0.2-0.2h-2.5c-0.1,0-0.2,0.1-0.2,0.2c0,0,0,3.4,0,6c0,2.6,1.4,3.2,3.4,3.2c1.6,0,2.9-0.9,2.9-0.9s0.1,0.5,0.1,0.5
		c0,0.1,0.1,0.1,0.2,0.1l1.6,0c0.1,0,0.2-0.1,0.2-0.2l0-8.7C83.5,23.2,83.4,23.1,83.2,23.1z"/>
	<path class="st1" d="M90,22.8c-1.4,0-2.3,0.6-2.3,0.6V19c0-0.1-0.1-0.2-0.2-0.2h-2.5c-0.1,0-0.2,0.1-0.2,0.2v13
		c0,0.1,0.1,0.2,0.2,0.2c0,0,1.7,0,1.7,0c0.1,0,0.1,0,0.2-0.1c0-0.1,0.1-0.6,0.1-0.6s1,1,2.9,1c2.3,0,3.6-1.1,3.6-5.1
		C93.4,23.3,91.4,22.8,90,22.8z M89,30.1c-0.9,0-1.4-0.4-1.4-0.4v-4.1c0,0,0.6-0.3,1.3-0.4c0.9-0.1,1.7,0.2,1.7,2.3
		C90.6,29.7,90.2,30.1,89,30.1z"/>
	<path class="st1" d="M62.8,23.1h-1.9c0,0,0-2.5,0-2.5c0-0.1,0-0.1-0.2-0.1h-2.5c-0.1,0-0.2,0-0.2,0.1v2.5c0,0-1.3,0.3-1.4,0.3
		c-0.1,0-0.1,0.1-0.1,0.2v1.6c0,0.1,0.1,0.2,0.2,0.2h1.3c0,0,0,1.7,0,3.8c0,2.8,2,3.1,3.3,3.1c0.6,0,1.4-0.2,1.5-0.2
		c0.1,0,0.1-0.1,0.1-0.2l0-1.8c0-0.1-0.1-0.2-0.2-0.2c-0.1,0-0.4,0-0.7,0c-0.9,0-1.2-0.4-1.2-1c0-0.5,0-3.6,0-3.6h1.9
		c0.1,0,0.2-0.1,0.2-0.2v-2C63,23.2,62.9,23.1,62.8,23.1z"/>
</g>
<path class="st5" d="M23,7.2c-7.2,0-13,5.9-13,13.1c0,5.8,3.7,10.7,8.9,12.5c0.6,0.1,0.9-0.3,0.9-0.6c0-0.3,0-1.3,0-2.4
	c-3.6,0.8-4.4-1.6-4.4-1.6c-0.6-1.5-1.4-1.9-1.4-1.9c-1.2-0.8,0.1-0.8,0.1-0.8c1.3,0.1,2,1.3,2,1.3c1.2,2,3,1.4,3.8,1.1
	c0.1-0.8,0.5-1.4,0.8-1.8c-2.9-0.3-5.9-1.4-5.9-6.5c0-1.4,0.5-2.6,1.3-3.5c-0.1-0.3-0.6-1.7,0.1-3.5c0,0,1.1-0.3,3.6,1.3
	c1.1-0.3,2.2-0.4,3.3-0.4c1.1,0,2.2,0.2,3.3,0.4c2.5-1.7,3.6-1.3,3.6-1.3c0.7,1.8,0.3,3.2,0.1,3.5c0.8,0.9,1.3,2.1,1.3,3.5
	c0,5-3,6.1-6,6.5c0.5,0.4,0.9,1.2,0.9,2.4c0,1.8,0,3.2,0,3.6c0,0.3,0.2,0.8,0.9,0.6C32.3,31,36,26.1,36,20.3
	C36.1,13.1,30.2,7.2,23,7.2z"/>
</svg>
