<?xml version="1.0" encoding="utf-8"?>
<!-- Generator: Adobe Illustrator 27.9.0, SVG Export Plug-In . SVG Version: 6.00 Build 0)  -->
<svg version="1.1" id="Badge" xmlns="http://www.w3.org/2000/svg" xmlns:xlink="http://www.w3.org/1999/xlink" x="0px" y="0px"
	 viewBox="0 0 135 40" style="enable-background:new 0 0 135 40;" xml:space="preserve">
<style type="text/css">
	.st0{fill:#A6A6A6;}
	.st1{fill:#FFFFFF;}
	.st2{font-family:'ProductSans-Regular';}
	.st3{font-size:8.38px;}
	.st4{fill:none;stroke:#FFFFFF;stroke-width:0.2;stroke-miterlimit:10;}
	.st5{fill:#0091EA;}
</style>
<g>
	<path d="M130,40H5c-2.8,0-5-2.2-5-5V5c0-2.8,2.2-5,5-5h125c2.8,0,5,2.2,5,5v30C135,37.8,132.8,40,130,40z"/>
</g>
<g>
	<g>
		<path class="st0" d="M130,0.8c2.3,0,4.2,1.9,4.2,4.2v30c0,2.3-1.9,4.2-4.2,4.2H5c-2.3,0-4.2-1.9-4.2-4.2V5c0-2.3,1.9-4.2,4.2-4.2
			L130,0.8 M130,0H5C2.2,0,0,2.3,0,5v30c0,2.8,2.2,5,5,5h125c2.8,0,5-2.2,5-5V5C135,2.3,132.8,0,130,0L130,0z"/>
	</g>
</g>
<text transform="matrix(1 0 0 1 41.0413 13.0001)" class="st1 st2 st3">GET IT ON</text>
<text transform="matrix(1 0 0 1 41.0413 13.0001)" class="st4 st2 st3">GET IT ON</text>
<g id="XMLID_13_">
	<g id="XMLID_14_">
		<circle id="XMLID_30_" class="st5" cx="22.8" cy="20" r="12.8"/>
		<g id="XMLID_27_">
			<path id="XMLID_29_" class="st1" d="M14.9,18.6v5.1c0,0.6,0.5,1.1,1.1,1.1h0c0.6,0,1.1-0.5,1.1-1.1v-5l0,0c0-1.2,1-2.3,2.3-2.3
				s2.3,1,2.3,2.3v4.2c0,0.6,0.5,1.1,1.1,1.1h0c0.6,0,1.1-0.5,1.1-1.1v-4.2l0,0c0-1.2,1-2.3,2.3-2.3s2.3,1,2.3,2.3l0,0v5
				c0,0.6,0.5,1.1,1.1,1.1h0c0.6,0,1.1-0.5,1.1-1.1v-5.1c0-0.1,0-0.1,0-0.2c-0.2-2.4-2.2-4.2-4.5-4.2c-1.4,0-2.6,0.6-3.4,1.5
				c-0.8-0.9-2.1-1.5-3.4-1.5c-2.4,0-4.4,1.9-4.5,4.3C14.9,18.5,14.9,18.6,14.9,18.6z"/>
			<path id="XMLID_28_" class="st1" d="M19.3,25.5c0.8,1.2,2,1.7,3.5,1.7c1.4,0,2.7-0.5,3.5-1.7c0,0,0.1-0.2,0-0.3
				c-0.1-0.1-0.2,0.1-0.2,0.1c-0.6,0.7-1.9,1.1-3.3,1.1c-1.4,0-2.7-0.4-3.3-1.1c0,0-0.2-0.2-0.2-0.1C19.2,25.4,19.3,25.5,19.3,25.5z
				"/>
		</g>
	</g>
</g>
<g id="XMLID_231_">
	<path id="XMLID_241_" class="st1" d="M49.4,25.7v3.2c0,0.5-0.1,0.9-0.3,1.1c-0.2,0.2-0.5,0.4-0.9,0.4c-0.4,0-0.7-0.1-0.9-0.4
		c-0.2-0.2-0.3-0.6-0.3-1.1v-3.8c0-0.6,0-1.1-0.1-1.4c0-0.3-0.2-0.6-0.3-0.8c-0.2-0.2-0.5-0.3-0.9-0.3c-0.8,0-1.3,0.3-1.5,0.8
		c-0.2,0.5-0.4,1.3-0.4,2.3v3.2c0,0.5-0.1,0.9-0.3,1.1c-0.2,0.3-0.5,0.4-0.9,0.4c-0.4,0-0.7-0.1-0.9-0.4c-0.2-0.3-0.4-0.6-0.4-1.1
		v-6.9c0-0.5,0.1-0.8,0.3-1c0.2-0.2,0.5-0.4,0.8-0.4c0.3,0,0.6,0.1,0.8,0.3c0.2,0.2,0.3,0.5,0.3,0.9v0.2c0.4-0.5,0.9-0.9,1.3-1.1
		c0.5-0.2,1-0.4,1.6-0.4c0.6,0,1.1,0.1,1.5,0.4c0.4,0.2,0.8,0.6,1.1,1.1c0.4-0.5,0.8-0.9,1.3-1.1c0.5-0.2,1-0.4,1.5-0.4
		c0.7,0,1.2,0.1,1.7,0.4c0.5,0.3,0.8,0.6,1.1,1.1c0.2,0.4,0.3,1.1,0.3,2v4.7c0,0.5-0.1,0.9-0.3,1.1c-0.2,0.2-0.5,0.4-0.9,0.4
		c-0.4,0-0.7-0.1-0.9-0.4c-0.2-0.3-0.4-0.6-0.4-1.1v-4c0-0.5,0-0.9-0.1-1.2c0-0.3-0.2-0.6-0.4-0.8c-0.2-0.2-0.5-0.3-0.9-0.3
		c-0.3,0-0.6,0.1-0.9,0.3s-0.5,0.4-0.7,0.8C49.5,24,49.4,24.7,49.4,25.7z"/>
	<path id="XMLID_239_" class="st1" d="M59.6,30.7l0.2-0.5l-3-7.4c-0.2-0.4-0.3-0.7-0.3-0.9c0-0.2,0.1-0.4,0.2-0.6s0.2-0.3,0.4-0.4
		s0.4-0.2,0.6-0.2c0.3,0,0.6,0.1,0.8,0.3c0.2,0.2,0.3,0.5,0.5,0.9l2,5.9l1.9-5.5c0.2-0.4,0.3-0.8,0.4-1c0.1-0.2,0.2-0.4,0.4-0.5
		c0.1-0.1,0.3-0.1,0.6-0.1c0.2,0,0.4,0.1,0.5,0.1c0.2,0.1,0.3,0.2,0.4,0.4c0.1,0.2,0.1,0.3,0.1,0.5c0,0.1-0.1,0.3-0.1,0.5
		c-0.1,0.2-0.1,0.4-0.2,0.6L61.9,31c-0.3,0.7-0.5,1.3-0.8,1.7c-0.3,0.4-0.6,0.7-1,0.9c-0.4,0.2-1,0.3-1.7,0.3
		c-0.7,0-1.2-0.1-1.6-0.2c-0.3-0.2-0.5-0.4-0.5-0.8c0-0.3,0.1-0.5,0.2-0.6c0.2-0.2,0.4-0.2,0.7-0.2c0.1,0,0.3,0,0.4,0.1
		c0.2,0,0.3,0.1,0.4,0.1c0.3,0,0.5,0,0.7-0.1c0.2-0.1,0.3-0.2,0.4-0.4C59.3,31.4,59.4,31.1,59.6,30.7z"/>
	<path id="XMLID_237_" class="st1" d="M73.1,29.3L71,25.9l-1.3,1.2V29c0,0.5-0.1,0.8-0.4,1.1c-0.2,0.2-0.5,0.4-0.8,0.4
		c-0.4,0-0.7-0.1-0.9-0.4c-0.2-0.2-0.3-0.6-0.3-1.1V18.7c0-0.5,0.1-0.9,0.3-1.2c0.2-0.3,0.5-0.4,0.9-0.4c0.4,0,0.7,0.1,0.9,0.4
		c0.2,0.2,0.3,0.6,0.3,1.1v5.8l2.7-2.8c0.3-0.4,0.6-0.6,0.8-0.7c0.2-0.1,0.4-0.2,0.6-0.2c0.3,0,0.5,0.1,0.7,0.3
		c0.2,0.2,0.3,0.4,0.3,0.7c0,0.4-0.3,0.8-1,1.4l-1.3,1.2l2.5,3.9c0.2,0.3,0.3,0.5,0.4,0.7c0.1,0.1,0.1,0.3,0.1,0.4
		c0,0.4-0.1,0.7-0.3,0.9s-0.5,0.3-0.8,0.3c-0.3,0-0.5-0.1-0.7-0.2C73.6,30,73.4,29.8,73.1,29.3z"/>
	<path id="XMLID_234_" class="st1" d="M83.5,26.2h-4.7c0,0.5,0.1,1,0.3,1.4s0.5,0.7,0.8,0.9c0.4,0.2,0.7,0.3,1.2,0.3
		c0.3,0,0.5,0,0.8-0.1c0.2-0.1,0.5-0.2,0.7-0.3c0.2-0.1,0.4-0.3,0.6-0.5c0.2-0.2,0.4-0.4,0.7-0.7c0.1-0.1,0.3-0.2,0.5-0.2
		c0.2,0,0.4,0.1,0.6,0.2c0.2,0.1,0.2,0.3,0.2,0.6c0,0.2-0.1,0.5-0.3,0.8c-0.2,0.3-0.4,0.6-0.8,0.8c-0.3,0.3-0.8,0.5-1.3,0.7
		c-0.5,0.2-1.1,0.3-1.8,0.3c-1.5,0-2.7-0.4-3.6-1.3c-0.9-0.9-1.3-2.1-1.3-3.6c0-0.7,0.1-1.4,0.3-2c0.2-0.6,0.5-1.1,0.9-1.6
		c0.4-0.4,0.9-0.8,1.5-1c0.6-0.2,1.2-0.4,2-0.4c0.9,0,1.7,0.2,2.4,0.6c0.7,0.4,1.2,0.9,1.5,1.5c0.3,0.6,0.5,1.3,0.5,1.9
		c0,0.6-0.2,1-0.5,1.2C84.6,26.1,84.1,26.2,83.5,26.2z M78.8,24.8h4.3c-0.1-0.8-0.3-1.4-0.7-1.8c-0.4-0.4-0.9-0.6-1.5-0.6
		c-0.6,0-1.1,0.2-1.5,0.6C79.1,23.4,78.9,24,78.8,24.8z"/>
	<path id="XMLID_232_" class="st1" d="M87.6,20.9h0.3v-1.4c0-0.4,0-0.7,0-0.9c0-0.2,0.1-0.4,0.2-0.6c0.1-0.2,0.2-0.3,0.4-0.4
		c0.2-0.1,0.4-0.2,0.6-0.2c0.3,0,0.6,0.1,0.8,0.3c0.2,0.2,0.3,0.3,0.3,0.6s0.1,0.5,0.1,0.9v1.6h0.9c0.3,0,0.6,0.1,0.8,0.2
		c0.2,0.2,0.3,0.4,0.3,0.6c0,0.3-0.1,0.5-0.4,0.7s-0.6,0.2-1.1,0.2h-0.4V27c0,0.4,0,0.7,0,0.9c0,0.2,0.1,0.4,0.2,0.5
		c0.1,0.1,0.3,0.2,0.6,0.2c0.1,0,0.3,0,0.6-0.1c0.2-0.1,0.4-0.1,0.6-0.1c0.2,0,0.4,0.1,0.5,0.2c0.2,0.2,0.2,0.4,0.2,0.6
		c0,0.4-0.2,0.7-0.6,0.9c-0.4,0.2-1,0.3-1.8,0.3c-0.8,0-1.3-0.1-1.7-0.4c-0.4-0.2-0.6-0.6-0.8-1c-0.1-0.4-0.2-1-0.2-1.8v-4.6h-0.3
		c-0.3,0-0.6-0.1-0.8-0.2c-0.2-0.2-0.3-0.4-0.3-0.6c0-0.3,0.1-0.5,0.3-0.6C87,21,87.2,20.9,87.6,20.9z"/>
</g>
</svg>
