<?xml version="1.0" encoding="utf-8"?>
<svg version="1.1" id="Layer_1" xmlns="http://www.w3.org/2000/svg" xmlns:xlink="http://www.w3.org/1999/xlink" x="0px" y="0px"
	 viewBox="0 0 600 600" xml:space="preserve">
<g id="g2299_1_" transform="matrix(.35274 0 0 .35274 4.0256 -.12547)">
	<circle fill="#989999" cx="835.4" cy="857.2" r="833.6"/>
</g>
<g transform="matrix(.35274 0 0 .35274 4.0256 -.12547)">
	<circle id="circle2297_1_" fill="#23A79B" cx="842" cy="845.7" r="833.6"/>
</g>
<path fill="#27A69A" d="M299.2,295.8"/>
<path fill="#2D6D68" d="M292.2,4.3c162.4-1,294.9,129.8,295.9,292.1S458.3,591.2,295.9,592.2"/>
<path id="path10_1_" fill="#00695C" d="M299.8,4.2c162.4-0.9,294.8,130.1,295.6,292.4S465.3,591.2,302.9,592.1"/>
<g id="Square" transform="matrix(.35274 0 0 .35274 5.5849 1.5716)">
	<rect x="908.4" y="1022.6" fill="#343434" width="664.7" height="90"/>
	<rect x="908.4" y="1201.4" fill="#343434" width="482.4" height="90"/>
	<rect x="908.4" y="1022.6" fill="#343434" width="664.7" height="90"/>
	<rect x="908.4" y="844" fill="#343434" width="664.7" height="90"/>
	<rect x="908.4" y="844" fill="#343434" width="664.7" height="90"/>
	<rect x="908.4" y="573.6" fill="#343434" width="664.7" height="172.7"/>
	<rect x="908.4" y="573.6" fill="#343434" width="664.7" height="172.7"/>
</g>
<linearGradient id="SVGID_1_" gradientUnits="userSpaceOnUse" x1="669.1157" y1="-820.9204" x2="308.3657" y2="-391.0204" gradientTransform="matrix(1.0199 9.998900e-03 -9.998900e-03 -1.0199 -274.8507 -266.0901)">
	<stop  offset="0" style="stop-color:#020203;stop-opacity:0.1"/>
	<stop  offset="1" style="stop-color:#020203"/>
</linearGradient>
<path opacity=".2" fill="url(#SVGID_1_)" d="M64.7,174.4c0,0,22.9,301,26.8,328.7c1,7,43.3,37.2,43.3,37.2s31.1,19.5,67.5,33.2c38.2,12,68.1,15.5,68.1,15.5
	s13.4,2,66.1-1.6c52.5-7.5,133.5-33.2,194.5-111l26.9-41.2l-400.6-394L64.7,174.4L64.7,174.4z"/>
<g transform="matrix(.35274 0 0 .35274 4.6752 .61132)">
	<rect x="908.1" y="1019.3" fill="#FFFFFF" width="662.8" height="88"/>
	<rect x="910.2" y="1196.4" fill="#FFFFFF" width="478.2" height="88.6"/>
	<rect x="908.1" y="836.8" fill="#FFFFFF" width="662.8" height="93.4"/>
	<rect x="908.1" y="570.1" fill="#FFFFFF" width="662.8" height="173.5"/>
</g>
<g>
	<path fill="#343434" d="M66.9,124.4v52.9l46.4,34.9l46.2-34.8V40.6C108.6,40.6,66.9,78.4,66.9,124.4z"/>
	<path fill="#DE2F14" d="M64.7,123.4v52.9l46.4,34.9l46.2-34.8V39.7C106.5,39.7,64.7,77.4,64.7,123.4z"/>
</g>
<g>
	<path fill="#343434" d="M156.4,238.8v35.9c0,8.9-6.4,16.2-14.4,16.2h-9c-7.9,0-14.4-7.3-14.4-16.2v-36H89V365h29.4v-44.8H149
		c20.4-0.1,36.8-16.5,36.9-36.9v-44.6L156.4,238.8L156.4,238.8z"/>
	<path fill="#343434" d="M273.9,272.3v-33.7h-52.5c-16.4,0-29.7,13.1-30.2,29.4v30.6c0.1,20.4,16.5,36.8,36.9,36.9h16.2V365h29.4v-44.8
		c0,9.5,0.3-45.6,0.3-45.6v-2.3L273.9,272.3z M238.9,306.2h-2.3c-8.9,0-16.2-6.4-16.2-14.4v-9c0-7.9,7.3-14.4,16.2-14.4h7.5v37.7
		L238.9,306.2L238.9,306.2z"/>
	<path fill="#FFFFFF" d="M154,236.4v35.9c0,8.9-6.4,16.2-14.4,16.2h-9c-7.9,0-14.4-7.3-14.4-16.2v-36H86.5v126.3h29.4v-44.8h30.6
		c20.4-0.1,36.8-16.5,36.9-36.9v-44.6L154,236.4z"/>
	<path fill="#FFFFFF" d="M271.4,270.1v-33.7h-52.5c-16.4,0-29.7,13.1-30.2,29.4v30.6c0.1,20.4,16.5,36.8,36.9,36.9h16.2v29.5h29.4V318
		c0,9.5,0.3-45.6,0.3-45.6v-2.3L271.4,270.1z M236.5,303.9h-2.3c-8.9,0-16.2-6.4-16.2-14.4v-9c0-7.9,7.3-14.4,16.2-14.4h7.5v37.7
		L236.5,303.9L236.5,303.9z"/>
</g>
</svg>
